<svg width="1202" height="542" viewBox="0 0 1202 542" fill="none" xmlns="http://www.w3.org/2000/svg">
<g clip-path="url(#clip0)">
<path d="M1135.19 0.738117H381.887C379.164 0.738114 376.468 1.30129 373.953 2.3955C371.437 3.48971 369.151 5.0935 367.226 7.11534C365.301 9.13717 363.773 11.5374 362.731 14.1791C361.689 16.8207 361.153 19.652 361.153 22.5114V463.275C361.153 466.134 361.689 468.965 362.731 471.607C363.773 474.249 365.301 476.649 367.226 478.671C369.151 480.693 371.437 482.296 373.953 483.391C376.468 484.485 379.164 485.048 381.887 485.048H1135.19C1140.69 485.048 1145.97 482.754 1149.86 478.671C1153.74 474.587 1155.93 469.049 1155.93 463.275V22.5114C1155.93 16.7367 1153.74 11.1986 1149.86 7.11536C1145.97 3.03208 1140.69 0.73812 1135.19 0.738117Z" fill="#3F3D56"/>
<path d="M1134.15 39.092H394.972V476.961H1134.15V39.092Z" fill="white"/>
<path d="M757.909 27.2756C762.096 27.2756 765.49 23.7113 765.49 19.3144C765.49 14.9175 762.096 11.3531 757.909 11.3531C753.722 11.3531 750.328 14.9175 750.328 19.3144C750.328 23.7113 753.722 27.2756 757.909 27.2756Z" fill="white"/>
<path d="M1022.34 210.133H822.64V216.627H1022.34V210.133Z" fill="#3F3D56"/>
<path d="M1022.34 235.644H822.64V242.137H1022.34V235.644Z" fill="#3F3D56"/>
<path d="M1176.68 469.125H1104.54V463.667C1104.54 463.525 1104.52 463.385 1104.47 463.253C1104.41 463.122 1104.34 463.003 1104.24 462.902C1104.15 462.802 1104.03 462.722 1103.91 462.668C1103.78 462.613 1103.65 462.585 1103.51 462.585H1078.78C1078.64 462.585 1078.51 462.613 1078.39 462.668C1078.26 462.722 1078.15 462.802 1078.05 462.902C1077.96 463.003 1077.88 463.122 1077.83 463.253C1077.78 463.384 1077.75 463.525 1077.75 463.667V469.125H1062.29V463.667C1062.29 463.525 1062.26 463.385 1062.21 463.253C1062.16 463.122 1062.09 463.003 1061.99 462.902C1061.89 462.802 1061.78 462.722 1061.65 462.668C1061.53 462.613 1061.4 462.585 1061.26 462.585H1036.53C1036.39 462.585 1036.26 462.613 1036.13 462.668C1036.01 462.722 1035.89 462.802 1035.8 462.902C1035.7 463.003 1035.63 463.122 1035.58 463.253C1035.52 463.385 1035.5 463.525 1035.5 463.667V463.667V469.125H1020.04V463.667C1020.04 463.525 1020.01 463.385 1019.96 463.253C1019.91 463.122 1019.83 463.003 1019.74 462.902C1019.64 462.802 1019.53 462.722 1019.4 462.668C1019.28 462.613 1019.14 462.585 1019.01 462.585H994.274C994.139 462.585 994.005 462.613 993.88 462.668C993.755 462.722 993.641 462.802 993.546 462.902C993.45 463.003 993.374 463.122 993.322 463.253C993.27 463.385 993.244 463.525 993.244 463.667V463.667V469.125H977.785V463.667C977.785 463.525 977.759 463.385 977.707 463.253C977.655 463.122 977.579 463.003 977.484 462.902C977.388 462.802 977.274 462.722 977.149 462.668C977.024 462.613 976.89 462.585 976.755 462.585H952.021C951.886 462.585 951.752 462.613 951.627 462.668C951.502 462.722 951.388 462.802 951.293 462.902C951.197 463.003 951.121 463.122 951.069 463.253C951.018 463.384 950.991 463.525 950.991 463.667V469.125H935.533V463.667C935.533 463.525 935.506 463.385 935.454 463.253C935.402 463.122 935.326 463.003 935.231 462.902C935.135 462.802 935.021 462.722 934.896 462.668C934.771 462.613 934.637 462.585 934.502 462.585H909.769C909.633 462.585 909.499 462.613 909.374 462.668C909.249 462.722 909.136 462.802 909.04 462.902C908.944 463.003 908.868 463.122 908.816 463.253C908.765 463.385 908.738 463.525 908.738 463.667V463.667V469.125H893.28V463.667C893.28 463.525 893.253 463.385 893.201 463.253C893.149 463.122 893.073 463.003 892.978 462.902C892.882 462.802 892.768 462.722 892.643 462.668C892.518 462.613 892.384 462.585 892.249 462.585H867.516C867.38 462.585 867.246 462.613 867.121 462.668C866.996 462.722 866.883 462.802 866.787 462.902C866.691 463.003 866.615 463.122 866.563 463.253C866.512 463.385 866.485 463.525 866.485 463.667V463.667V469.125H851.027V463.667C851.027 463.525 851 463.385 850.948 463.253C850.896 463.122 850.821 463.003 850.725 462.902C850.629 462.802 850.516 462.722 850.391 462.668C850.266 462.613 850.132 462.585 849.996 462.585H656.251C656.116 462.585 655.982 462.613 655.857 462.668C655.732 462.722 655.618 462.802 655.522 462.902C655.427 463.003 655.351 463.122 655.299 463.253C655.247 463.385 655.221 463.525 655.221 463.667V463.667V469.125H639.762V463.667C639.762 463.525 639.736 463.385 639.684 463.253C639.632 463.122 639.556 463.003 639.46 462.902C639.365 462.802 639.251 462.722 639.126 462.668C639.001 462.613 638.867 462.585 638.732 462.585H613.998C613.863 462.585 613.729 462.613 613.604 462.668C613.479 462.722 613.365 462.802 613.27 462.902C613.174 463.003 613.098 463.122 613.046 463.253C612.994 463.385 612.968 463.525 612.968 463.667V463.667V469.125H597.509V463.667C597.509 463.525 597.483 463.385 597.431 463.253C597.379 463.122 597.303 463.003 597.208 462.902C597.112 462.802 596.998 462.722 596.873 462.668C596.748 462.613 596.614 462.585 596.479 462.585H571.745C571.61 462.585 571.476 462.613 571.351 462.668C571.226 462.722 571.112 462.802 571.017 462.902C570.921 463.003 570.845 463.122 570.793 463.253C570.741 463.385 570.715 463.525 570.715 463.667V463.667V469.125H555.256V463.667C555.256 463.525 555.23 463.385 555.178 463.253C555.126 463.122 555.05 463.003 554.955 462.902C554.859 462.802 554.745 462.722 554.62 462.668C554.495 462.613 554.361 462.585 554.226 462.585H529.492C529.357 462.585 529.223 462.613 529.098 462.668C528.973 462.722 528.859 462.802 528.764 462.902C528.668 463.003 528.592 463.122 528.54 463.253C528.488 463.385 528.462 463.525 528.462 463.667V463.667V469.125H513.004V463.667C513.004 463.525 512.977 463.385 512.925 463.253C512.873 463.122 512.797 463.003 512.702 462.902C512.606 462.802 512.492 462.722 512.367 462.668C512.242 462.613 512.108 462.585 511.973 462.585H487.24C487.104 462.585 486.97 462.613 486.845 462.668C486.72 462.722 486.607 462.802 486.511 462.902C486.415 463.003 486.339 463.122 486.287 463.253C486.236 463.385 486.209 463.525 486.209 463.667V463.667V469.125H470.751V463.667C470.751 463.525 470.724 463.385 470.672 463.253C470.62 463.122 470.544 463.003 470.449 462.902C470.353 462.802 470.239 462.722 470.114 462.668C469.989 462.613 469.855 462.585 469.72 462.585H444.987C444.713 462.585 444.451 462.699 444.258 462.902C444.065 463.105 443.956 463.38 443.956 463.667V469.125H428.498V463.667C428.498 463.525 428.471 463.385 428.419 463.253C428.367 463.122 428.292 463.003 428.196 462.902C428.1 462.802 427.987 462.722 427.862 462.668C427.737 462.613 427.603 462.585 427.467 462.585H402.734C402.46 462.585 402.198 462.699 402.005 462.902C401.812 463.105 401.703 463.38 401.703 463.667V469.125H354.297C347.738 469.125 341.447 471.862 336.808 476.733C332.17 481.604 329.564 488.21 329.564 495.098V506.843C329.564 513.731 332.17 520.337 336.808 525.208C341.447 530.079 347.738 532.816 354.297 532.816H1176.68C1183.24 532.816 1189.53 530.079 1194.17 525.208C1198.81 520.337 1201.42 513.731 1201.42 506.843V495.098C1201.42 491.688 1200.78 488.31 1199.53 485.159C1198.29 482.008 1196.47 479.145 1194.17 476.733C1191.88 474.321 1189.15 472.408 1186.15 471.103C1183.15 469.797 1179.93 469.125 1176.68 469.125V469.125Z" fill="#3F3D56"/>
<path d="M538.71 109.614C541.312 109.614 543.422 107.398 543.422 104.665C543.422 101.932 541.312 99.7159 538.71 99.7159C536.107 99.7159 533.997 101.932 533.997 104.665C533.997 107.398 536.107 109.614 538.71 109.614Z" fill="#6C63FF"/>
<path d="M551.669 109.614C554.272 109.614 556.382 107.398 556.382 104.665C556.382 101.932 554.272 99.7159 551.669 99.7159C549.067 99.7159 546.957 101.932 546.957 104.665C546.957 107.398 549.067 109.614 551.669 109.614Z" fill="#6C63FF"/>
<path d="M564.629 109.614C567.232 109.614 569.342 107.398 569.342 104.665C569.342 101.932 567.232 99.7159 564.629 99.7159C562.027 99.7159 559.917 101.932 559.917 104.665C559.917 107.398 562.027 109.614 564.629 109.614Z" fill="#6C63FF"/>
<path opacity="0.3" d="M674.2 291.328H605.866V298.751H674.2V291.328Z" fill="#6C63FF"/>
<path opacity="0.3" d="M670.506 307.412H605.866V314.835H670.506V307.412Z" fill="#6C63FF"/>
<path opacity="0.3" d="M652.961 323.496H605.866V330.919H652.961V323.496Z" fill="#6C63FF"/>
<g opacity="0.3">
<path opacity="0.3" d="M833.254 291.328H764.92V298.751H833.254V291.328Z" fill="#6C63FF"/>
<path opacity="0.3" d="M829.561 307.412H764.92V314.835H829.561V307.412Z" fill="#6C63FF"/>
<path opacity="0.3" d="M812.015 323.496H764.92V330.919H812.015V323.496Z" fill="#6C63FF"/>
<path opacity="0.3" d="M833.254 291.328H764.92V298.751H833.254V291.328Z" fill="#6C63FF"/>
<path opacity="0.3" d="M829.561 307.412H764.92V314.835H829.561V307.412Z" fill="#6C63FF"/>
<path opacity="0.3" d="M812.015 323.496H764.92V330.919H812.015V323.496Z" fill="#6C63FF"/>
</g>
<path opacity="0.3" d="M998.199 291.328H929.865V298.751H998.199V291.328Z" fill="#6C63FF"/>
<path opacity="0.3" d="M994.505 307.412H929.865V314.835H994.505V307.412Z" fill="#6C63FF"/>
<path opacity="0.3" d="M976.96 323.496H929.865V330.919H976.96V323.496Z" fill="#6C63FF"/>
<path opacity="0.3" d="M683.625 194.824H596.44V276.481H683.625V194.824Z" fill="#6C63FF"/>
<path d="M842.68 194.824H755.494V276.481H842.68V194.824Z" fill="#3F3D56"/>
<path d="M1007.62 194.824H920.439V276.481H1007.62V194.824Z" fill="#3F3D56"/>
<path d="M787.728 276.138L786.578 276.114C786.602 274.777 787.321 243.252 799.139 234.539L799.8 235.527C788.458 243.889 787.733 275.816 787.728 276.138Z" fill="#6C63FF"/>
<path d="M805.221 234.14C808.397 234.14 810.972 231.436 810.972 228.101C810.972 224.765 808.397 222.061 805.221 222.061C802.045 222.061 799.47 224.765 799.47 228.101C799.47 231.436 802.045 234.14 805.221 234.14Z" fill="#6C63FF"/>
<path d="M804.058 249.425C801.067 250.412 797.881 250.556 794.82 249.844C796.763 247.245 799.381 245.292 802.358 244.22C805.335 243.148 808.543 243.002 811.597 243.801C809.596 246.336 806.997 248.276 804.058 249.425V249.425Z" fill="#6C63FF"/>
<path d="M952.673 276.138L951.523 276.114C951.547 274.777 952.266 243.252 964.085 234.539L964.745 235.527C953.403 243.889 952.678 275.816 952.673 276.138Z" fill="#6C63FF"/>
<path d="M970.166 234.14C973.342 234.14 975.917 231.436 975.917 228.101C975.917 224.765 973.342 222.061 970.166 222.061C966.99 222.061 964.415 224.765 964.415 228.101C964.415 231.436 966.99 234.14 970.166 234.14Z" fill="#6C63FF"/>
<path d="M969.003 249.425C966.012 250.412 962.826 250.556 959.765 249.844C961.708 247.245 964.326 245.292 967.303 244.22C970.28 243.148 973.488 243.002 976.542 243.801C974.541 246.336 971.942 248.276 969.003 249.425V249.425Z" fill="#6C63FF"/>
<path d="M1085.38 421.394H521.037V79.9204H1085.38V421.394ZM523.393 418.928H1083.03V82.3859H523.393V418.928Z" fill="#2F2E41"/>
<path d="M1083.03 115.88H521.037V118.355H1083.03V115.88Z" fill="#2F2E41"/>
<path d="M656.293 378.419H667.074V380.872H653.277V358.122H656.293V378.419ZM677.058 381.185C674.767 381.185 672.902 380.435 671.465 378.935C670.027 377.424 669.308 375.409 669.308 372.888V372.357C669.308 370.679 669.626 369.185 670.261 367.872C670.907 366.549 671.803 365.518 672.949 364.778C674.105 364.028 675.355 363.653 676.699 363.653C678.897 363.653 680.605 364.377 681.824 365.825C683.043 367.273 683.652 369.346 683.652 372.044V373.247H672.199C672.241 374.914 672.725 376.263 673.652 377.294C674.59 378.315 675.777 378.825 677.215 378.825C678.235 378.825 679.1 378.617 679.808 378.2C680.517 377.784 681.136 377.232 681.668 376.544L683.433 377.919C682.017 380.096 679.892 381.185 677.058 381.185ZM676.699 366.028C675.532 366.028 674.553 366.455 673.761 367.31C672.97 368.153 672.48 369.341 672.293 370.872H680.761V370.653C680.678 369.185 680.282 368.049 679.574 367.247C678.866 366.435 677.907 366.028 676.699 366.028ZM690.933 359.872V363.966H694.09V366.2H690.933V376.685C690.933 377.362 691.074 377.872 691.355 378.216C691.636 378.549 692.116 378.716 692.793 378.716C693.126 378.716 693.584 378.653 694.168 378.528V380.872C693.407 381.08 692.668 381.185 691.949 381.185C690.657 381.185 689.683 380.794 689.027 380.013C688.371 379.232 688.043 378.122 688.043 376.685V366.2H684.965V363.966H688.043V359.872H690.933ZM707.324 376.388C707.324 375.607 707.027 375.002 706.433 374.575C705.85 374.138 704.824 373.763 703.355 373.45C701.897 373.138 700.735 372.763 699.871 372.325C699.017 371.888 698.381 371.367 697.965 370.763C697.558 370.159 697.355 369.44 697.355 368.607C697.355 367.221 697.939 366.049 699.105 365.091C700.282 364.133 701.782 363.653 703.605 363.653C705.522 363.653 707.074 364.148 708.261 365.138C709.459 366.127 710.058 367.393 710.058 368.935H707.152C707.152 368.143 706.814 367.461 706.136 366.888C705.47 366.315 704.626 366.028 703.605 366.028C702.553 366.028 701.73 366.258 701.136 366.716C700.543 367.174 700.246 367.773 700.246 368.513C700.246 369.211 700.522 369.737 701.074 370.091C701.626 370.445 702.621 370.784 704.058 371.107C705.506 371.429 706.678 371.815 707.574 372.263C708.47 372.711 709.131 373.252 709.558 373.888C709.996 374.513 710.215 375.278 710.215 376.185C710.215 377.695 709.61 378.909 708.402 379.825C707.194 380.732 705.626 381.185 703.699 381.185C702.345 381.185 701.147 380.945 700.105 380.466C699.064 379.987 698.246 379.32 697.652 378.466C697.069 377.601 696.777 376.669 696.777 375.669H699.668C699.72 376.638 700.105 377.409 700.824 377.982C701.553 378.544 702.511 378.825 703.699 378.825C704.793 378.825 705.668 378.607 706.324 378.169C706.991 377.721 707.324 377.127 707.324 376.388ZM722.371 380.872V358.122H729.808C732.277 358.122 734.131 358.633 735.371 359.653C736.621 360.674 737.246 362.185 737.246 364.185C737.246 365.247 736.944 366.19 736.34 367.013C735.735 367.825 734.913 368.455 733.871 368.903C735.1 369.247 736.069 369.903 736.777 370.872C737.496 371.83 737.855 372.976 737.855 374.31C737.855 376.351 737.194 377.955 735.871 379.122C734.548 380.289 732.678 380.872 730.261 380.872H722.371ZM725.371 370.232V378.419H730.324C731.72 378.419 732.819 378.06 733.621 377.341C734.433 376.612 734.84 375.612 734.84 374.341C734.84 371.601 733.35 370.232 730.371 370.232H725.371ZM725.371 367.825H729.902C731.215 367.825 732.261 367.497 733.043 366.841C733.834 366.185 734.23 365.294 734.23 364.169C734.23 362.919 733.866 362.013 733.136 361.45C732.407 360.877 731.298 360.591 729.808 360.591H725.371V367.825ZM748.871 381.185C746.579 381.185 744.715 380.435 743.277 378.935C741.84 377.424 741.121 375.409 741.121 372.888V372.357C741.121 370.679 741.439 369.185 742.074 367.872C742.72 366.549 743.616 365.518 744.761 364.778C745.918 364.028 747.168 363.653 748.511 363.653C750.709 363.653 752.418 364.377 753.636 365.825C754.855 367.273 755.465 369.346 755.465 372.044V373.247H744.011C744.053 374.914 744.538 376.263 745.465 377.294C746.402 378.315 747.59 378.825 749.027 378.825C750.048 378.825 750.913 378.617 751.621 378.2C752.329 377.784 752.949 377.232 753.48 376.544L755.246 377.919C753.829 380.096 751.704 381.185 748.871 381.185ZM748.511 366.028C747.345 366.028 746.366 366.455 745.574 367.31C744.782 368.153 744.293 369.341 744.105 370.872H752.574V370.653C752.491 369.185 752.095 368.049 751.386 367.247C750.678 366.435 749.72 366.028 748.511 366.028ZM758.136 372.278C758.136 369.643 758.746 367.549 759.965 365.997C761.183 364.435 762.798 363.653 764.808 363.653C766.871 363.653 768.48 364.383 769.636 365.841L769.777 363.966H772.418V380.466C772.418 382.653 771.767 384.377 770.465 385.638C769.173 386.898 767.433 387.528 765.246 387.528C764.027 387.528 762.834 387.268 761.668 386.747C760.501 386.226 759.61 385.513 758.996 384.607L760.496 382.872C761.735 384.403 763.251 385.169 765.043 385.169C766.449 385.169 767.543 384.773 768.324 383.982C769.116 383.19 769.511 382.075 769.511 380.638V379.185C768.355 380.518 766.777 381.185 764.777 381.185C762.798 381.185 761.194 380.388 759.965 378.794C758.746 377.2 758.136 375.028 758.136 372.278ZM761.043 372.607C761.043 374.513 761.433 376.013 762.215 377.107C762.996 378.19 764.09 378.732 765.496 378.732C767.319 378.732 768.657 377.903 769.511 376.247V368.528C768.626 366.914 767.298 366.107 765.527 366.107C764.121 366.107 763.022 366.653 762.23 367.747C761.439 368.841 761.043 370.461 761.043 372.607ZM779.933 380.872H777.043V363.966H779.933V380.872ZM776.808 359.482C776.808 359.013 776.949 358.617 777.23 358.294C777.522 357.971 777.949 357.81 778.511 357.81C779.074 357.81 779.501 357.971 779.793 358.294C780.084 358.617 780.23 359.013 780.23 359.482C780.23 359.95 780.084 360.341 779.793 360.653C779.501 360.966 779.074 361.122 778.511 361.122C777.949 361.122 777.522 360.966 777.23 360.653C776.949 360.341 776.808 359.95 776.808 359.482ZM787.308 363.966L787.402 366.091C788.694 364.466 790.381 363.653 792.465 363.653C796.038 363.653 797.84 365.669 797.871 369.7V380.872H794.98V369.685C794.97 368.466 794.689 367.565 794.136 366.982C793.595 366.398 792.746 366.107 791.59 366.107C790.652 366.107 789.829 366.357 789.121 366.857C788.413 367.357 787.86 368.013 787.465 368.825V380.872H784.574V363.966H787.308ZM814.09 359.872V363.966H817.246V366.2H814.09V376.685C814.09 377.362 814.23 377.872 814.511 378.216C814.793 378.549 815.272 378.716 815.949 378.716C816.282 378.716 816.741 378.653 817.324 378.528V380.872C816.564 381.08 815.824 381.185 815.105 381.185C813.814 381.185 812.84 380.794 812.183 380.013C811.527 379.232 811.199 378.122 811.199 376.685V366.2H808.121V363.966H811.199V359.872H814.09ZM819.558 372.263C819.558 370.607 819.881 369.117 820.527 367.794C821.183 366.471 822.09 365.45 823.246 364.732C824.413 364.013 825.741 363.653 827.23 363.653C829.532 363.653 831.392 364.45 832.808 366.044C834.235 367.638 834.949 369.758 834.949 372.403V372.607C834.949 374.252 834.631 375.732 833.996 377.044C833.371 378.346 832.47 379.362 831.293 380.091C830.126 380.82 828.782 381.185 827.261 381.185C824.97 381.185 823.11 380.388 821.683 378.794C820.267 377.2 819.558 375.091 819.558 372.466V372.263ZM822.465 372.607C822.465 374.482 822.897 375.987 823.761 377.122C824.636 378.258 825.803 378.825 827.261 378.825C828.73 378.825 829.897 378.252 830.761 377.107C831.626 375.95 832.058 374.336 832.058 372.263C832.058 370.409 831.616 368.909 830.73 367.763C829.855 366.607 828.689 366.028 827.23 366.028C825.803 366.028 824.652 366.596 823.777 367.732C822.902 368.867 822.465 370.492 822.465 372.607ZM853.293 378.825C854.324 378.825 855.225 378.513 855.996 377.888C856.767 377.263 857.194 376.482 857.277 375.544H860.011C859.959 376.513 859.626 377.435 859.011 378.31C858.397 379.185 857.574 379.883 856.543 380.403C855.522 380.924 854.439 381.185 853.293 381.185C850.991 381.185 849.157 380.419 847.793 378.888C846.439 377.346 845.761 375.242 845.761 372.575V372.091C845.761 370.445 846.064 368.982 846.668 367.7C847.272 366.419 848.136 365.424 849.261 364.716C850.397 364.008 851.735 363.653 853.277 363.653C855.173 363.653 856.746 364.221 857.996 365.357C859.256 366.492 859.928 367.966 860.011 369.778H857.277C857.194 368.685 856.777 367.789 856.027 367.091C855.288 366.383 854.371 366.028 853.277 366.028C851.808 366.028 850.668 366.56 849.855 367.622C849.053 368.674 848.652 370.2 848.652 372.2V372.747C848.652 374.695 849.053 376.195 849.855 377.247C850.657 378.299 851.803 378.825 853.293 378.825ZM862.496 372.263C862.496 370.607 862.819 369.117 863.465 367.794C864.121 366.471 865.027 365.45 866.183 364.732C867.35 364.013 868.678 363.653 870.168 363.653C872.47 363.653 874.329 364.45 875.746 366.044C877.173 367.638 877.886 369.758 877.886 372.403V372.607C877.886 374.252 877.569 375.732 876.933 377.044C876.308 378.346 875.407 379.362 874.23 380.091C873.064 380.82 871.72 381.185 870.199 381.185C867.907 381.185 866.048 380.388 864.621 378.794C863.204 377.2 862.496 375.091 862.496 372.466V372.263ZM865.402 372.607C865.402 374.482 865.834 375.987 866.699 377.122C867.574 378.258 868.741 378.825 870.199 378.825C871.668 378.825 872.834 378.252 873.699 377.107C874.564 375.95 874.996 374.336 874.996 372.263C874.996 370.409 874.553 368.909 873.668 367.763C872.793 366.607 871.626 366.028 870.168 366.028C868.741 366.028 867.59 366.596 866.715 367.732C865.84 368.867 865.402 370.492 865.402 372.607ZM880.808 372.278C880.808 369.685 881.423 367.601 882.652 366.028C883.881 364.445 885.491 363.653 887.48 363.653C889.459 363.653 891.027 364.33 892.183 365.685V356.872H895.074V380.872H892.418L892.277 379.06C891.121 380.476 889.511 381.185 887.449 381.185C885.491 381.185 883.892 380.383 882.652 378.778C881.423 377.174 880.808 375.08 880.808 372.497V372.278ZM883.699 372.607C883.699 374.523 884.095 376.023 884.886 377.107C885.678 378.19 886.772 378.732 888.168 378.732C890.001 378.732 891.34 377.909 892.183 376.263V368.497C891.319 366.903 889.991 366.107 888.199 366.107C886.782 366.107 885.678 366.653 884.886 367.747C884.095 368.841 883.699 370.461 883.699 372.607ZM906.59 381.185C904.298 381.185 902.433 380.435 900.996 378.935C899.558 377.424 898.84 375.409 898.84 372.888V372.357C898.84 370.679 899.157 369.185 899.793 367.872C900.439 366.549 901.334 365.518 902.48 364.778C903.636 364.028 904.886 363.653 906.23 363.653C908.428 363.653 910.136 364.377 911.355 365.825C912.574 367.273 913.183 369.346 913.183 372.044V373.247H901.73C901.772 374.914 902.256 376.263 903.183 377.294C904.121 378.315 905.308 378.825 906.746 378.825C907.767 378.825 908.631 378.617 909.34 378.2C910.048 377.784 910.668 377.232 911.199 376.544L912.965 377.919C911.548 380.096 909.423 381.185 906.59 381.185ZM906.23 366.028C905.064 366.028 904.084 366.455 903.293 367.31C902.501 368.153 902.011 369.341 901.824 370.872H910.293V370.653C910.209 369.185 909.814 368.049 909.105 367.247C908.397 366.435 907.439 366.028 906.23 366.028Z" fill="#E38484"/>
<path d="M1099 431V77H753.689H420V431H1099Z" fill="#24285B"/>
<path d="M839 272H619V290H839V272Z" fill="#68E1FD"/>
<path d="M878 230H686V246H878V230Z" fill="#FFD200"/>
<path d="M865 343H767V361H865V343Z" fill="#FFD200"/>
<path d="M945 311H686V328H945V311Z" fill="#68E1FD"/>
<path d="M638 311H540V328H638V311Z" fill="white"/>
<path d="M733 349H638V370H733V349Z" fill="white"/>
<path d="M573 272H480V290H573V272Z" fill="white"/>
<path d="M466.5 110C473.956 110 480 107.538 480 104.5C480 101.462 473.956 99 466.5 99C459.044 99 453 101.462 453 104.5C453 107.538 459.044 110 466.5 110Z" fill="white"/>
<path d="M503 110C508.523 110 513 107.538 513 104.5C513 101.462 508.523 99 503 99C497.477 99 493 101.462 493 104.5C493 107.538 497.477 110 503 110Z" fill="#68E1FD"/>
<path d="M532.5 110C539.956 110 546 107.538 546 104.5C546 101.462 539.956 99 532.5 99C525.044 99 519 101.462 519 104.5C519 107.538 525.044 110 532.5 110Z" fill="#FFD200"/>
<path d="M573 153H480V165H573V153Z" fill="white"/>
<path d="M638 191H540V202H638V191Z" fill="white"/>
<path d="M878 191H686V202H878V191Z" fill="#FFD200"/>
<path d="M638 230H540V246H638V230Z" fill="white"/>
<path d="M813 153H614V165H813V153Z" fill="#68E1FD"/>
<path d="M998 115H860V138H998V115Z" fill="#68E1FD"/>
<path d="M1034 195H961V239H1034V195Z" fill="#FFD200"/>
<path d="M990.183 225.999C989.786 226.001 989.4 225.889 989.09 225.683L977.668 218.222C977.46 218.087 977.292 217.914 977.176 217.717C977.06 217.52 977 217.303 977 217.084C977 216.865 977.06 216.649 977.176 216.452C977.292 216.254 977.46 216.082 977.668 215.946L989.09 208.322C989.271 208.202 989.478 208.112 989.701 208.059C989.924 208.005 990.157 207.988 990.388 208.009C990.618 208.029 990.842 208.087 991.045 208.179C991.248 208.272 991.428 208.396 991.573 208.545C991.719 208.695 991.827 208.867 991.892 209.051C991.957 209.235 991.978 209.427 991.953 209.618C991.927 209.809 991.857 209.993 991.746 210.162C991.634 210.33 991.484 210.478 991.303 210.598L981.607 217.046L991.29 223.374C991.482 223.492 991.643 223.642 991.763 223.813C991.883 223.985 991.959 224.174 991.988 224.371C992.016 224.568 991.996 224.767 991.928 224.957C991.86 225.147 991.746 225.324 991.593 225.476C991.423 225.648 991.208 225.784 990.963 225.875C990.718 225.966 990.451 226.008 990.183 225.999V225.999Z" fill="white"/>
<path d="M1009.65 225.999C1009.4 226.001 1009.16 225.952 1008.93 225.856C1008.71 225.759 1008.51 225.618 1008.36 225.443C1008.09 225.139 1007.96 224.753 1008.01 224.368C1008.07 223.984 1008.29 223.633 1008.63 223.393L1017.69 217.057L1008.62 210.602C1008.28 210.359 1008.06 210.006 1008.01 209.62C1007.96 209.235 1008.09 208.848 1008.36 208.546C1008.64 208.244 1009.04 208.05 1009.47 208.009C1009.91 207.967 1010.35 208.08 1010.69 208.323L1021.37 215.956C1021.57 216.092 1021.73 216.265 1021.84 216.462C1021.94 216.659 1022 216.876 1022 217.095C1022 217.315 1021.94 217.531 1021.84 217.729C1021.73 217.926 1021.57 218.099 1021.37 218.235L1010.69 225.705C1010.39 225.906 1010.03 226.01 1009.65 225.999Z" fill="white"/>
<path d="M994.775 226C994.521 225.998 994.271 225.954 994.04 225.869C993.611 225.708 993.278 225.414 993.113 225.052C992.948 224.691 992.964 224.29 993.159 223.939L1001.58 208.856C1001.78 208.504 1002.14 208.229 1002.58 208.093C1003.03 207.957 1003.52 207.971 1003.95 208.131C1004.38 208.292 1004.72 208.586 1004.89 208.949C1005.05 209.312 1005.04 209.714 1004.84 210.067L996.403 225.149C996.261 225.404 996.032 225.621 995.743 225.772C995.454 225.923 995.118 226.002 994.775 226Z" fill="white"/>
</g>
<defs>
<clipPath id="clip0">
<rect width="1201.13" height="540.272" fill="white" transform="translate(0.281677 0.738113)"/>
</clipPath>
</defs>
</svg>
