<svg width="1690" height="815" viewBox="0 0 1690 815" fill="none" xmlns="http://www.w3.org/2000/svg">
<path opacity="0.1" d="M845 770.674C1311.68 770.674 1690 732.336 1690 685.043C1690 637.751 1311.68 599.413 845 599.413C378.319 599.413 0 637.751 0 685.043C0 732.336 378.319 770.674 845 770.674Z" fill="#6C63FF"/>
<path d="M1497.93 613.173L1473.04 618.789L1478.39 644.929L1503.28 639.312L1497.93 613.173Z" fill="#E6E6E6"/>
<path d="M1480.46 600.511L1486.96 632.253L1456.73 639.073L1450.24 607.332L1480.46 600.511ZM1485.36 631.169L1479.43 602.188L1451.83 608.415L1457.76 637.396L1485.36 631.169Z" fill="#CCCCCC"/>
<path d="M1259.7 378.153C1259.7 378.153 1274.91 403.488 1269.47 410.347C1264.04 417.207 1310.23 417.378 1310.23 417.378C1310.23 417.378 1303.29 380.524 1305.34 372.042L1259.7 378.153Z" fill="#FFB8B8"/>
<path opacity="0.1" d="M1259.7 378.153C1259.7 378.153 1274.91 403.488 1269.47 410.347C1264.04 417.207 1310.23 417.378 1310.23 417.378C1310.23 417.378 1303.29 380.524 1305.34 372.042L1259.7 378.153Z" fill="black"/>
<path d="M1284.01 387.335C1310.35 387.335 1331.7 364.909 1331.7 337.246C1331.7 309.583 1310.35 287.158 1284.01 287.158C1257.66 287.158 1236.31 309.583 1236.31 337.246C1236.31 364.909 1257.66 387.335 1284.01 387.335Z" fill="#FF6584"/>
<path d="M1396.19 608.739V638.432L1424.47 632.246L1422.11 611.213L1396.19 608.739Z" fill="#FFB8B8"/>
<path d="M1496.34 613.688L1575.27 627.297L1555.24 658.228C1555.24 658.228 1499.87 638.432 1485.73 638.432C1471.59 638.432 1496.34 613.688 1496.34 613.688Z" fill="#FFB8B8"/>
<path d="M1317.25 554.301C1317.25 554.301 1376.16 482.542 1395.01 486.254C1413.86 489.965 1422.11 512.235 1422.11 512.235L1432.71 622.348C1432.71 622.348 1395.01 626.06 1395.01 622.348C1395.01 618.637 1387.94 539.454 1387.94 539.454C1387.94 539.454 1332.57 668.125 1303.11 582.757L1317.25 554.301Z" fill="#2F2E41"/>
<path d="M1221.82 602.553C1221.82 602.553 1223 664.414 1258.34 668.125C1293.69 671.837 1332.57 643.381 1332.57 643.381L1396.19 611.374C1396.19 611.374 1471.59 653.279 1493.98 642.144C1493.98 642.144 1517.54 616.162 1502.23 608.739C1486.91 601.315 1501.05 608.739 1501.05 608.739L1410.33 559.25C1410.33 559.25 1392.66 554.301 1362.02 567.91C1331.39 581.52 1290.15 587.706 1290.15 587.706L1221.82 602.553Z" fill="#2F2E41"/>
<path d="M1280.73 390.987C1300.25 390.987 1316.07 374.37 1316.07 353.871C1316.07 333.372 1300.25 316.754 1280.73 316.754C1261.21 316.754 1245.38 333.372 1245.38 353.871C1245.38 374.37 1261.21 390.987 1280.73 390.987Z" fill="#FFB8B8"/>
<path d="M1331.39 457.798L1329.03 509.761C1329.03 509.761 1330.21 577.808 1319.61 582.757C1314.25 585.256 1303.48 590.279 1293.52 595.773C1286.05 599.88 1279.04 604.235 1275.13 607.984C1274.1 608.91 1273.2 610 1272.48 611.213C1267.77 619.874 1237.14 618.637 1230.07 612.45C1223 606.264 1227.71 619.874 1221.82 622.348C1216.12 624.748 1208.21 605.126 1213.05 575.829C1213.21 574.851 1213.38 573.861 1213.57 572.859C1218.98 544.465 1210.49 476.455 1211.79 450.176C1211.87 448.169 1212.07 446.168 1212.39 444.188C1215.93 424.392 1261.03 384.108 1269.47 401.269C1279.86 422.45 1303.73 403.1 1307.83 393.462C1331.39 392.225 1339.64 421.918 1339.64 421.918L1331.39 457.798Z" fill="#3F3D56"/>
<path d="M1426.82 627.297C1426.82 627.297 1407.97 634.72 1402.08 633.483C1396.19 632.246 1390.3 637.195 1390.3 644.618C1390.3 652.041 1383.23 669.363 1393.83 670.6C1404.44 671.837 1448.03 669.363 1457.46 673.074C1457.46 673.074 1499.87 674.311 1496.34 655.753C1492.8 637.195 1475.13 638.432 1475.13 638.432C1475.13 638.432 1426.82 635.958 1426.82 627.297Z" fill="#2F2E41"/>
<path d="M1564.67 631.009C1564.67 631.009 1567.03 623.585 1570.56 623.585C1574.1 623.585 1602.37 628.534 1605.91 627.297C1609.44 626.06 1650.68 623.585 1643.61 644.618C1636.54 665.651 1612.98 668.125 1612.98 668.125C1612.98 668.125 1570.56 663.176 1564.67 664.414C1558.78 665.651 1537.57 664.414 1541.11 658.228C1544.64 652.041 1567.03 640.906 1564.67 631.009Z" fill="#2F2E41"/>
<path d="M1457.43 453.298L1463.89 481.297C1463.96 481.609 1463.95 481.936 1463.86 482.242L1434.54 578.461C1434.42 578.842 1434.18 579.17 1433.86 579.39C1433.55 579.609 1433.17 579.708 1432.79 579.668C1432.41 579.629 1432.05 579.455 1431.78 579.174C1431.51 578.893 1431.34 578.523 1431.3 578.126L1427.24 540.642C1427.21 540.394 1427.24 540.141 1427.31 539.903L1454.22 453.168C1454.34 452.807 1454.56 452.493 1454.85 452.275C1455.15 452.058 1455.51 451.948 1455.87 451.963C1456.23 451.977 1456.58 452.116 1456.86 452.357C1457.14 452.598 1457.34 452.928 1457.43 453.298V453.298Z" fill="#D0CDE1"/>
<path d="M1455.05 455.663L1461.02 479.685L1435.15 567.42L1429.19 540.265L1455.05 455.663Z" fill="#F2F2F2"/>
<path d="M1324.75 586.221C1325.75 589.355 1428.19 585.177 1429.19 584.132C1430.05 582.824 1430.79 581.424 1431.38 579.955C1432.31 577.866 1433.17 575.777 1433.17 575.777L1429.19 541.957L1327.74 538.176C1327.74 538.176 1325.2 566.836 1324.68 579.955C1324.51 582.041 1324.53 584.14 1324.75 586.221Z" fill="#D0CDE1"/>
<path opacity="0.1" d="M1416.26 546.531L1418.25 575.777H1373.49V546.531H1416.26Z" fill="black"/>
<path opacity="0.1" d="M1358.57 555.932L1358.84 555.876L1357.58 568.466H1332.71V555.932H1358.57Z" fill="black"/>
<path opacity="0.1" d="M1324.75 586.221C1325.75 589.355 1428.19 585.177 1429.19 584.132C1430.05 582.824 1430.79 581.424 1431.38 579.954H1324.68C1324.51 582.041 1324.53 584.14 1324.75 586.221Z" fill="black"/>
<path d="M1308.9 248.088C1305.3 253.494 1299.96 257.351 1293.86 258.949C1283.34 261.907 1293.77 278.508 1293.77 278.508C1293.77 278.508 1289.98 272.471 1295.45 266.078C1300.92 259.685 1309.73 255.314 1308.9 248.088Z" fill="#FF6584"/>
<path d="M1291.91 296.449C1299.25 296.449 1305.2 290.199 1305.2 282.49C1305.2 274.781 1299.25 268.531 1291.91 268.531C1284.57 268.531 1278.61 274.781 1278.61 282.49C1278.61 290.199 1284.57 296.449 1291.91 296.449Z" fill="#FF6584"/>
<path d="M1308.88 294.19C1298.04 289.886 1280 287.703 1270.72 289.195L1271.99 279.433C1280.91 284.277 1298.87 286.553 1310.15 284.428L1308.88 294.19Z" fill="#3F3D56"/>
<path d="M1288.99 296.243C1288.99 296.243 1302.04 328.826 1316.36 331.907C1330.68 334.988 1329.6 386.473 1307.2 394.193C1307.2 394.193 1323.53 364.01 1309.57 343.768C1295.61 323.526 1286.79 307.524 1288.99 296.243Z" fill="#FF6584"/>
<path opacity="0.1" d="M1293.52 595.773C1290.61 601.55 1287.2 607.551 1286.62 609.976C1286.23 611.621 1281.92 610.669 1275.13 607.984C1261.52 602.577 1237.94 590.193 1215.93 577.808C1214.91 577.243 1213.95 576.58 1213.05 575.829C1213.21 574.851 1213.38 573.861 1213.57 572.859C1218.98 544.465 1210.49 476.455 1211.79 450.176L1221.82 446.662L1241.85 466.458V550.589C1241.85 550.589 1293.69 580.283 1297.22 582.757C1299.03 584.019 1296.54 589.772 1293.52 595.773Z" fill="black"/>
<path d="M1337.28 528.319L1369.09 545.64C1369.09 545.64 1387.94 524.607 1399.73 540.691C1411.51 556.775 1365.56 561.724 1365.56 561.724C1365.56 561.724 1325.5 551.826 1324.32 538.217C1323.14 524.607 1337.28 528.319 1337.28 528.319Z" fill="#FFB8B8"/>
<path d="M1284.26 574.096L1303.11 579.045C1303.11 579.045 1324.32 551.826 1346.71 561.724C1369.09 571.622 1318.43 591.418 1318.43 591.418C1318.43 591.418 1291.33 606.264 1280.73 593.892C1270.13 581.52 1284.26 574.096 1284.26 574.096Z" fill="#FFB8B8"/>
<path d="M1325.5 410.783C1326.68 412.02 1339.64 421.918 1339.64 421.918C1339.64 421.918 1343.17 468.932 1338.46 478.83C1333.75 488.728 1330.21 488.728 1333.75 493.677C1337.28 498.626 1341.99 494.914 1337.28 503.575C1332.57 512.235 1327.86 510.998 1331.39 514.71C1334.93 518.421 1333.75 519.659 1333.75 519.659L1347.89 532.031C1347.89 532.031 1339.21 546.539 1328.23 545.471C1317.25 544.403 1307.83 488.728 1307.83 488.728L1325.5 410.783Z" fill="#3F3D56"/>
<path d="M1221.82 440.476L1211.22 444.188C1211.22 444.188 1182.94 553.064 1215.93 571.622C1248.92 590.18 1285.44 608.739 1286.62 603.79C1287.8 598.841 1300.76 579.045 1297.22 576.571C1293.69 574.096 1241.85 544.403 1241.85 544.403V460.272L1221.82 440.476Z" fill="#3F3D56"/>
<path opacity="0.1" d="M1237.73 485.635L1235.37 545.022L1297.81 575.952L1240.08 545.022L1237.73 485.635Z" fill="black"/>
<g clip-path="url(#clip0)">
<path d="M321.923 438.143C321.934 436.485 321.619 434.842 320.999 433.317C320.378 431.793 319.464 430.419 318.315 429.281C317.166 428.144 315.806 427.267 314.32 426.706C312.834 426.145 311.254 425.912 309.678 426.022C308.102 426.131 306.565 426.58 305.162 427.342C303.759 428.103 302.521 429.159 301.524 430.446C300.527 431.732 299.794 433.22 299.37 434.818C298.945 436.415 298.839 438.087 299.058 439.729L266.052 485.118C264.643 488.076 264.097 491.404 264.482 494.687C264.867 497.969 266.165 501.059 268.215 503.57L270.804 506.742L282.683 504.247L296.147 491.772L294.563 477.633L311.195 450.187L311.174 450.168C314.085 449.973 316.817 448.621 318.813 446.388C320.81 444.155 321.922 441.207 321.923 438.143V438.143Z" fill="#FFB9B9"/>
<path d="M93.6753 660.044L88.2875 639.031L162.904 607.211L170.855 638.223L93.6753 660.044Z" fill="#FFB8B8"/>
<path d="M75.6529 670.887L58.2817 603.134L59.0977 602.903C65.7579 601.02 72.8576 601.992 78.8351 605.606C84.8126 609.22 89.1784 615.179 90.9722 622.173L90.9726 622.175L101.582 663.556L75.6529 670.887Z" fill="#2F2E41"/>
<path d="M196.456 656.686L179.698 643.888L218.732 569.916L243.467 588.804L196.456 656.686Z" fill="#FFB8B8"/>
<path d="M188.917 677.01L134.878 635.742L135.375 635.024C139.432 629.167 145.539 625.241 152.352 624.111C159.164 622.981 166.126 624.739 171.704 628.998L171.706 628.999L204.71 654.205L188.917 677.01Z" fill="#2F2E41"/>
<path d="M338.915 553.316L296.742 510.295C293.061 506.54 288.214 504.307 283.09 504.007C277.967 503.706 272.912 505.358 268.856 508.659L189.228 601.554L196.356 613.197L272.387 559.138L323.867 629.831L372.971 604.049L338.915 553.316Z" fill="#2F2E41"/>
<path d="M320.699 562.465L289.811 559.97L267.442 554.275C266.179 552.205 264.343 550.59 262.182 549.646C260.02 548.701 257.635 548.473 255.346 548.992C253.057 549.51 250.974 550.75 249.375 552.546C247.776 554.342 246.738 556.608 246.399 559.041C246.061 561.474 246.438 563.957 247.48 566.159C248.523 568.36 250.181 570.175 252.232 571.36C254.284 572.544 256.631 573.042 258.96 572.787C261.289 572.533 263.488 571.537 265.263 569.933L265.259 569.95L278.724 575.772L336.539 596.564L343.667 590.742L320.699 562.465Z" fill="#FFB9B9"/>
<path d="M395.147 652.288L377.723 663.931H357.13L261.3 626.505L121.116 653.119L117.156 621.514L245.46 562.465L357.923 601.554L395.147 652.288Z" fill="#2F2E41"/>
<path d="M357.923 450.187C374.982 450.187 388.811 435.665 388.811 417.752C388.811 399.838 374.982 385.316 357.923 385.316C340.864 385.316 327.035 399.838 327.035 417.752C327.035 435.665 340.864 450.187 357.923 450.187Z" fill="#FFB9B9"/>
<path d="M437.843 547.253C437.843 566.829 434.906 586.282 429.139 604.897L426.827 612.366L415.739 665.594L403.859 668.921L395.147 657.277L377.723 643.97L365.051 622.346L354.185 603.334L350.795 597.396L338.915 535.019L293.771 508.405L278.723 505.91L281.891 496.762L295.355 477.633L308.819 475.969L312.779 472.643L315.947 474.306L333.411 481.371L390.03 456.25L398.315 457.672L426.827 482.623C434.115 503.311 437.846 525.195 437.843 547.253V547.253Z" fill="#CCCCCC"/>
<path opacity="0.1" d="M429.202 540.01L399.106 560.801L354.185 603.333L350.795 597.396L341.291 547.495H343.667L368.219 500.089L429.202 540.01Z" fill="black"/>
<path d="M368.219 495.098L343.667 542.504L329.411 559.138L316.74 562.465L350.795 601.554L399.107 555.811L429.202 535.019L368.219 495.098Z" fill="#CCCCCC"/>
<path d="M333.898 393.634L330.552 394.986C330.044 394.625 329.609 394.162 329.271 393.624C328.933 393.087 328.7 392.484 328.584 391.851C328.468 391.219 328.471 390.568 328.595 389.937C328.718 389.306 328.959 388.707 329.303 388.173C329.321 388.145 329.339 388.117 329.358 388.09L323.173 387.786C327.143 382.234 332.191 377.63 337.982 374.279C343.773 370.928 350.176 368.907 356.766 368.349C363.357 367.792 369.985 368.71 376.212 371.043C382.44 373.377 388.124 377.072 392.89 381.885C393.172 380.867 396.241 382.848 397.494 384.857C397.915 383.2 400.793 391.21 401.811 396.873C402.282 394.987 404.094 398.031 402.507 400.952C403.513 400.797 403.967 403.499 403.188 405.005C404.289 404.462 404.103 407.688 402.91 409.844C404.48 409.697 402.776 443.659 379.213 441.184C377.572 433.269 378.034 433.761 376.103 423.583C375.204 422.581 374.219 421.668 373.236 420.757L367.919 415.829C361.737 410.098 356.113 403.025 347.877 400.884C342.218 399.412 338.639 399.079 341.723 392.382C338.937 393.603 336.334 395.419 333.522 396.553C333.56 395.618 333.953 394.57 333.898 393.634Z" fill="#2F2E41"/>
<path d="M373.367 427.316C376.429 427.316 378.911 424.709 378.911 421.494C378.911 418.279 376.429 415.672 373.367 415.672C370.305 415.672 367.823 418.279 367.823 421.494C367.823 424.709 370.305 427.316 373.367 427.316Z" fill="#FFB9B9"/>
<path d="M1193.19 136.738H439.887C437.164 136.738 434.468 137.301 431.953 138.396C429.437 139.49 427.151 141.094 425.226 143.115C423.301 145.137 421.773 147.537 420.731 150.179C419.689 152.821 419.153 155.652 419.153 158.511V599.275C419.153 602.134 419.689 604.965 420.731 607.607C421.773 610.249 423.301 612.649 425.226 614.671C427.151 616.693 429.437 618.296 431.953 619.391C434.468 620.485 437.164 621.048 439.887 621.048H1193.19C1198.69 621.048 1203.97 618.754 1207.86 614.671C1211.74 610.587 1213.93 605.049 1213.93 599.275V158.511C1213.93 152.737 1211.74 147.199 1207.86 143.115C1203.97 139.032 1198.69 136.738 1193.19 136.738Z" fill="#3F3D56"/>
<path d="M1192.15 175.092H452.972V612.961H1192.15V175.092Z" fill="white"/>
<path d="M815.909 163.276C820.096 163.276 823.49 159.711 823.49 155.314C823.49 150.918 820.096 147.353 815.909 147.353C811.722 147.353 808.328 150.918 808.328 155.314C808.328 159.711 811.722 163.276 815.909 163.276Z" fill="white"/>
<path d="M1080.34 346.133H880.64V352.627H1080.34V346.133Z" fill="#3F3D56"/>
<path d="M1080.34 371.644H880.64V378.137H1080.34V371.644Z" fill="#3F3D56"/>
<path d="M1234.68 605.125H1162.54V599.667C1162.54 599.525 1162.52 599.385 1162.47 599.253C1162.41 599.122 1162.34 599.003 1162.24 598.902C1162.15 598.802 1162.03 598.722 1161.91 598.668C1161.78 598.613 1161.65 598.585 1161.51 598.585H1136.78C1136.64 598.585 1136.51 598.613 1136.39 598.668C1136.26 598.722 1136.15 598.802 1136.05 598.902C1135.96 599.003 1135.88 599.122 1135.83 599.253C1135.78 599.384 1135.75 599.525 1135.75 599.667V605.125H1120.29V599.667C1120.29 599.525 1120.26 599.385 1120.21 599.253C1120.16 599.122 1120.09 599.003 1119.99 598.902C1119.89 598.802 1119.78 598.722 1119.65 598.668C1119.53 598.613 1119.4 598.585 1119.26 598.585H1094.53C1094.39 598.585 1094.26 598.613 1094.13 598.668C1094.01 598.722 1093.89 598.802 1093.8 598.902C1093.7 599.003 1093.63 599.122 1093.58 599.253C1093.52 599.385 1093.5 599.525 1093.5 599.667V599.667V605.125H1078.04V599.667C1078.04 599.525 1078.01 599.385 1077.96 599.253C1077.91 599.122 1077.83 599.003 1077.74 598.902C1077.64 598.802 1077.53 598.722 1077.4 598.668C1077.28 598.613 1077.14 598.585 1077.01 598.585H1052.27C1052.14 598.585 1052 598.613 1051.88 598.668C1051.75 598.722 1051.64 598.802 1051.55 598.902C1051.45 599.003 1051.37 599.122 1051.32 599.253C1051.27 599.385 1051.24 599.525 1051.24 599.667V599.667V605.125H1035.79V599.667C1035.79 599.525 1035.76 599.385 1035.71 599.253C1035.66 599.122 1035.58 599.003 1035.48 598.902C1035.39 598.802 1035.27 598.722 1035.15 598.668C1035.02 598.613 1034.89 598.585 1034.75 598.585H1010.02C1009.89 598.585 1009.75 598.613 1009.63 598.668C1009.5 598.722 1009.39 598.802 1009.29 598.902C1009.2 599.003 1009.12 599.122 1009.07 599.253C1009.02 599.384 1008.99 599.525 1008.99 599.667V605.125H993.533V599.667C993.533 599.525 993.506 599.385 993.454 599.253C993.402 599.122 993.326 599.003 993.231 598.902C993.135 598.802 993.021 598.722 992.896 598.668C992.771 598.613 992.637 598.585 992.502 598.585H967.769C967.633 598.585 967.499 598.613 967.374 598.668C967.249 598.722 967.136 598.802 967.04 598.902C966.944 599.003 966.868 599.122 966.816 599.253C966.765 599.385 966.738 599.525 966.738 599.667V599.667V605.125H951.28V599.667C951.28 599.525 951.253 599.385 951.201 599.253C951.149 599.122 951.073 599.003 950.978 598.902C950.882 598.802 950.768 598.722 950.643 598.668C950.518 598.613 950.384 598.585 950.249 598.585H925.516C925.38 598.585 925.246 598.613 925.121 598.668C924.996 598.722 924.883 598.802 924.787 598.902C924.691 599.003 924.615 599.122 924.563 599.253C924.512 599.385 924.485 599.525 924.485 599.667V599.667V605.125H909.027V599.667C909.027 599.525 909 599.385 908.948 599.253C908.896 599.122 908.821 599.003 908.725 598.902C908.629 598.802 908.516 598.722 908.391 598.668C908.266 598.613 908.132 598.585 907.996 598.585H714.251C714.116 598.585 713.982 598.613 713.857 598.668C713.732 598.722 713.618 598.802 713.522 598.902C713.427 599.003 713.351 599.122 713.299 599.253C713.247 599.385 713.221 599.525 713.221 599.667V599.667V605.125H697.762V599.667C697.762 599.525 697.736 599.385 697.684 599.253C697.632 599.122 697.556 599.003 697.46 598.902C697.365 598.802 697.251 598.722 697.126 598.668C697.001 598.613 696.867 598.585 696.732 598.585H671.998C671.863 598.585 671.729 598.613 671.604 598.668C671.479 598.722 671.365 598.802 671.27 598.902C671.174 599.003 671.098 599.122 671.046 599.253C670.994 599.385 670.968 599.525 670.968 599.667V599.667V605.125H655.509V599.667C655.509 599.525 655.483 599.385 655.431 599.253C655.379 599.122 655.303 599.003 655.208 598.902C655.112 598.802 654.998 598.722 654.873 598.668C654.748 598.613 654.614 598.585 654.479 598.585H629.745C629.61 598.585 629.476 598.613 629.351 598.668C629.226 598.722 629.112 598.802 629.017 598.902C628.921 599.003 628.845 599.122 628.793 599.253C628.741 599.385 628.715 599.525 628.715 599.667V599.667V605.125H613.256V599.667C613.256 599.525 613.23 599.385 613.178 599.253C613.126 599.122 613.05 599.003 612.955 598.902C612.859 598.802 612.745 598.722 612.62 598.668C612.495 598.613 612.361 598.585 612.226 598.585H587.492C587.357 598.585 587.223 598.613 587.098 598.668C586.973 598.722 586.859 598.802 586.764 598.902C586.668 599.003 586.592 599.122 586.54 599.253C586.488 599.385 586.462 599.525 586.462 599.667V599.667V605.125H571.004V599.667C571.004 599.525 570.977 599.385 570.925 599.253C570.873 599.122 570.797 599.003 570.702 598.902C570.606 598.802 570.492 598.722 570.367 598.668C570.242 598.613 570.108 598.585 569.973 598.585H545.24C545.104 598.585 544.97 598.613 544.845 598.668C544.72 598.722 544.607 598.802 544.511 598.902C544.415 599.003 544.339 599.122 544.287 599.253C544.236 599.385 544.209 599.525 544.209 599.667V599.667V605.125H528.751V599.667C528.751 599.525 528.724 599.385 528.672 599.253C528.62 599.122 528.544 599.003 528.449 598.902C528.353 598.802 528.239 598.722 528.114 598.668C527.989 598.613 527.855 598.585 527.72 598.585H502.987C502.713 598.585 502.451 598.699 502.258 598.902C502.065 599.105 501.956 599.38 501.956 599.667V605.125H486.498V599.667C486.498 599.525 486.471 599.385 486.419 599.253C486.367 599.122 486.292 599.003 486.196 598.902C486.1 598.802 485.987 598.722 485.862 598.668C485.737 598.613 485.603 598.585 485.467 598.585H460.734C460.46 598.585 460.198 598.699 460.005 598.902C459.812 599.105 459.703 599.38 459.703 599.667V605.125H412.297C405.738 605.125 399.447 607.862 394.808 612.733C390.17 617.604 387.564 624.21 387.564 631.098V642.843C387.564 649.731 390.17 656.337 394.808 661.208C399.447 666.079 405.738 668.816 412.297 668.816H1234.68C1241.24 668.816 1247.53 666.079 1252.17 661.208C1256.81 656.337 1259.42 649.731 1259.42 642.843V631.098C1259.42 627.688 1258.78 624.31 1257.53 621.159C1256.29 618.008 1254.47 615.145 1252.17 612.733C1249.88 610.321 1247.15 608.408 1244.15 607.103C1241.15 605.797 1237.93 605.125 1234.68 605.125V605.125Z" fill="#3F3D56"/>
<path d="M596.71 245.614C599.312 245.614 601.422 243.398 601.422 240.665C601.422 237.932 599.312 235.716 596.71 235.716C594.107 235.716 591.997 237.932 591.997 240.665C591.997 243.398 594.107 245.614 596.71 245.614Z" fill="#6C63FF"/>
<path d="M609.669 245.614C612.272 245.614 614.382 243.398 614.382 240.665C614.382 237.932 612.272 235.716 609.669 235.716C607.067 235.716 604.957 237.932 604.957 240.665C604.957 243.398 607.067 245.614 609.669 245.614Z" fill="#6C63FF"/>
<path d="M622.629 245.614C625.232 245.614 627.342 243.398 627.342 240.665C627.342 237.932 625.232 235.716 622.629 235.716C620.027 235.716 617.917 237.932 617.917 240.665C617.917 243.398 620.027 245.614 622.629 245.614Z" fill="#6C63FF"/>
<path opacity="0.3" d="M732.2 427.328H663.866V434.751H732.2V427.328Z" fill="#6C63FF"/>
<path opacity="0.3" d="M728.506 443.412H663.866V450.835H728.506V443.412Z" fill="#6C63FF"/>
<path opacity="0.3" d="M710.961 459.496H663.866V466.919H710.961V459.496Z" fill="#6C63FF"/>
<g opacity="0.3">
<path opacity="0.3" d="M891.254 427.328H822.92V434.751H891.254V427.328Z" fill="#6C63FF"/>
<path opacity="0.3" d="M887.561 443.412H822.92V450.835H887.561V443.412Z" fill="#6C63FF"/>
<path opacity="0.3" d="M870.015 459.496H822.92V466.919H870.015V459.496Z" fill="#6C63FF"/>
<path opacity="0.3" d="M891.254 427.328H822.92V434.751H891.254V427.328Z" fill="#6C63FF"/>
<path opacity="0.3" d="M887.561 443.412H822.92V450.835H887.561V443.412Z" fill="#6C63FF"/>
<path opacity="0.3" d="M870.015 459.496H822.92V466.919H870.015V459.496Z" fill="#6C63FF"/>
</g>
<path opacity="0.3" d="M1056.2 427.328H987.865V434.751H1056.2V427.328Z" fill="#6C63FF"/>
<path opacity="0.3" d="M1052.51 443.412H987.865V450.835H1052.51V443.412Z" fill="#6C63FF"/>
<path opacity="0.3" d="M1034.96 459.496H987.865V466.919H1034.96V459.496Z" fill="#6C63FF"/>
<path opacity="0.3" d="M741.625 330.824H654.44V412.481H741.625V330.824Z" fill="#6C63FF"/>
<path d="M900.68 330.824H813.494V412.481H900.68V330.824Z" fill="#3F3D56"/>
<path d="M1065.62 330.824H978.439V412.481H1065.62V330.824Z" fill="#3F3D56"/>
<path d="M845.728 412.138L844.578 412.114C844.602 410.777 845.321 379.252 857.139 370.539L857.8 371.527C846.458 379.889 845.733 411.816 845.728 412.138Z" fill="#6C63FF"/>
<path d="M863.221 370.14C866.397 370.14 868.972 367.436 868.972 364.101C868.972 360.765 866.397 358.061 863.221 358.061C860.045 358.061 857.47 360.765 857.47 364.101C857.47 367.436 860.045 370.14 863.221 370.14Z" fill="#6C63FF"/>
<path d="M862.058 385.425C859.067 386.412 855.881 386.556 852.82 385.844C854.763 383.245 857.381 381.292 860.358 380.22C863.335 379.148 866.543 379.002 869.597 379.801C867.596 382.336 864.997 384.276 862.058 385.425V385.425Z" fill="#6C63FF"/>
<path d="M1010.67 412.138L1009.52 412.114C1009.55 410.777 1010.27 379.252 1022.08 370.539L1022.75 371.527C1011.4 379.889 1010.68 411.816 1010.67 412.138Z" fill="#6C63FF"/>
<path d="M1028.17 370.14C1031.34 370.14 1033.92 367.436 1033.92 364.101C1033.92 360.765 1031.34 358.061 1028.17 358.061C1024.99 358.061 1022.41 360.765 1022.41 364.101C1022.41 367.436 1024.99 370.14 1028.17 370.14Z" fill="#6C63FF"/>
<path d="M1027 385.425C1024.01 386.412 1020.83 386.556 1017.76 385.844C1019.71 383.245 1022.33 381.292 1025.3 380.22C1028.28 379.148 1031.49 379.002 1034.54 379.801C1032.54 382.336 1029.94 384.276 1027 385.425V385.425Z" fill="#6C63FF"/>
<path d="M1143.38 557.394H579.037V215.92H1143.38V557.394ZM581.393 554.928H1141.03V218.386H581.393V554.928Z" fill="#2F2E41"/>
<path d="M1141.03 251.88H579.037V254.355H1141.03V251.88Z" fill="#2F2E41"/>
<path d="M714.293 514.419H725.074V516.872H711.277V494.122H714.293V514.419ZM735.058 517.185C732.767 517.185 730.902 516.435 729.465 514.935C728.027 513.424 727.308 511.409 727.308 508.888V508.357C727.308 506.679 727.626 505.185 728.261 503.872C728.907 502.549 729.803 501.518 730.949 500.778C732.105 500.028 733.355 499.653 734.699 499.653C736.897 499.653 738.605 500.377 739.824 501.825C741.043 503.273 741.652 505.346 741.652 508.044V509.247H730.199C730.241 510.914 730.725 512.263 731.652 513.294C732.59 514.315 733.777 514.825 735.215 514.825C736.235 514.825 737.1 514.617 737.808 514.2C738.517 513.784 739.136 513.232 739.668 512.544L741.433 513.919C740.017 516.096 737.892 517.185 735.058 517.185ZM734.699 502.028C733.532 502.028 732.553 502.455 731.761 503.31C730.97 504.153 730.48 505.341 730.293 506.872H738.761V506.653C738.678 505.185 738.282 504.049 737.574 503.247C736.866 502.435 735.907 502.028 734.699 502.028ZM748.933 495.872V499.966H752.09V502.2H748.933V512.685C748.933 513.362 749.074 513.872 749.355 514.216C749.636 514.549 750.116 514.716 750.793 514.716C751.126 514.716 751.584 514.653 752.168 514.528V516.872C751.407 517.08 750.668 517.185 749.949 517.185C748.657 517.185 747.683 516.794 747.027 516.013C746.371 515.232 746.043 514.122 746.043 512.685V502.2H742.965V499.966H746.043V495.872H748.933ZM765.324 512.388C765.324 511.607 765.027 511.002 764.433 510.575C763.85 510.138 762.824 509.763 761.355 509.45C759.897 509.138 758.735 508.763 757.871 508.325C757.017 507.888 756.381 507.367 755.965 506.763C755.558 506.159 755.355 505.44 755.355 504.607C755.355 503.221 755.939 502.049 757.105 501.091C758.282 500.133 759.782 499.653 761.605 499.653C763.522 499.653 765.074 500.148 766.261 501.138C767.459 502.127 768.058 503.393 768.058 504.935H765.152C765.152 504.143 764.814 503.461 764.136 502.888C763.47 502.315 762.626 502.028 761.605 502.028C760.553 502.028 759.73 502.258 759.136 502.716C758.543 503.174 758.246 503.773 758.246 504.513C758.246 505.211 758.522 505.737 759.074 506.091C759.626 506.445 760.621 506.784 762.058 507.107C763.506 507.429 764.678 507.815 765.574 508.263C766.47 508.711 767.131 509.252 767.558 509.888C767.996 510.513 768.215 511.278 768.215 512.185C768.215 513.695 767.61 514.909 766.402 515.825C765.194 516.732 763.626 517.185 761.699 517.185C760.345 517.185 759.147 516.945 758.105 516.466C757.064 515.987 756.246 515.32 755.652 514.466C755.069 513.601 754.777 512.669 754.777 511.669H757.668C757.72 512.638 758.105 513.409 758.824 513.982C759.553 514.544 760.511 514.825 761.699 514.825C762.793 514.825 763.668 514.607 764.324 514.169C764.991 513.721 765.324 513.127 765.324 512.388ZM780.371 516.872V494.122H787.808C790.277 494.122 792.131 494.633 793.371 495.653C794.621 496.674 795.246 498.185 795.246 500.185C795.246 501.247 794.944 502.19 794.34 503.013C793.735 503.825 792.913 504.455 791.871 504.903C793.1 505.247 794.069 505.903 794.777 506.872C795.496 507.83 795.855 508.976 795.855 510.31C795.855 512.351 795.194 513.955 793.871 515.122C792.548 516.289 790.678 516.872 788.261 516.872H780.371ZM783.371 506.232V514.419H788.324C789.72 514.419 790.819 514.06 791.621 513.341C792.433 512.612 792.84 511.612 792.84 510.341C792.84 507.601 791.35 506.232 788.371 506.232H783.371ZM783.371 503.825H787.902C789.215 503.825 790.261 503.497 791.043 502.841C791.834 502.185 792.23 501.294 792.23 500.169C792.23 498.919 791.866 498.013 791.136 497.45C790.407 496.877 789.298 496.591 787.808 496.591H783.371V503.825ZM806.871 517.185C804.579 517.185 802.715 516.435 801.277 514.935C799.84 513.424 799.121 511.409 799.121 508.888V508.357C799.121 506.679 799.439 505.185 800.074 503.872C800.72 502.549 801.616 501.518 802.761 500.778C803.918 500.028 805.168 499.653 806.511 499.653C808.709 499.653 810.418 500.377 811.636 501.825C812.855 503.273 813.465 505.346 813.465 508.044V509.247H802.011C802.053 510.914 802.538 512.263 803.465 513.294C804.402 514.315 805.59 514.825 807.027 514.825C808.048 514.825 808.913 514.617 809.621 514.2C810.329 513.784 810.949 513.232 811.48 512.544L813.246 513.919C811.829 516.096 809.704 517.185 806.871 517.185ZM806.511 502.028C805.345 502.028 804.366 502.455 803.574 503.31C802.782 504.153 802.293 505.341 802.105 506.872H810.574V506.653C810.491 505.185 810.095 504.049 809.386 503.247C808.678 502.435 807.72 502.028 806.511 502.028ZM816.136 508.278C816.136 505.643 816.746 503.549 817.965 501.997C819.183 500.435 820.798 499.653 822.808 499.653C824.871 499.653 826.48 500.383 827.636 501.841L827.777 499.966H830.418V516.466C830.418 518.653 829.767 520.377 828.465 521.638C827.173 522.898 825.433 523.528 823.246 523.528C822.027 523.528 820.834 523.268 819.668 522.747C818.501 522.226 817.61 521.513 816.996 520.607L818.496 518.872C819.735 520.403 821.251 521.169 823.043 521.169C824.449 521.169 825.543 520.773 826.324 519.982C827.116 519.19 827.511 518.075 827.511 516.638V515.185C826.355 516.518 824.777 517.185 822.777 517.185C820.798 517.185 819.194 516.388 817.965 514.794C816.746 513.2 816.136 511.028 816.136 508.278ZM819.043 508.607C819.043 510.513 819.433 512.013 820.215 513.107C820.996 514.19 822.09 514.732 823.496 514.732C825.319 514.732 826.657 513.903 827.511 512.247V504.528C826.626 502.914 825.298 502.107 823.527 502.107C822.121 502.107 821.022 502.653 820.23 503.747C819.439 504.841 819.043 506.461 819.043 508.607ZM837.933 516.872H835.043V499.966H837.933V516.872ZM834.808 495.482C834.808 495.013 834.949 494.617 835.23 494.294C835.522 493.971 835.949 493.81 836.511 493.81C837.074 493.81 837.501 493.971 837.793 494.294C838.084 494.617 838.23 495.013 838.23 495.482C838.23 495.95 838.084 496.341 837.793 496.653C837.501 496.966 837.074 497.122 836.511 497.122C835.949 497.122 835.522 496.966 835.23 496.653C834.949 496.341 834.808 495.95 834.808 495.482ZM845.308 499.966L845.402 502.091C846.694 500.466 848.381 499.653 850.465 499.653C854.038 499.653 855.84 501.669 855.871 505.7V516.872H852.98V505.685C852.97 504.466 852.689 503.565 852.136 502.982C851.595 502.398 850.746 502.107 849.59 502.107C848.652 502.107 847.829 502.357 847.121 502.857C846.413 503.357 845.86 504.013 845.465 504.825V516.872H842.574V499.966H845.308ZM872.09 495.872V499.966H875.246V502.2H872.09V512.685C872.09 513.362 872.23 513.872 872.511 514.216C872.793 514.549 873.272 514.716 873.949 514.716C874.282 514.716 874.741 514.653 875.324 514.528V516.872C874.564 517.08 873.824 517.185 873.105 517.185C871.814 517.185 870.84 516.794 870.183 516.013C869.527 515.232 869.199 514.122 869.199 512.685V502.2H866.121V499.966H869.199V495.872H872.09ZM877.558 508.263C877.558 506.607 877.881 505.117 878.527 503.794C879.183 502.471 880.09 501.45 881.246 500.732C882.413 500.013 883.741 499.653 885.23 499.653C887.532 499.653 889.392 500.45 890.808 502.044C892.235 503.638 892.949 505.758 892.949 508.403V508.607C892.949 510.252 892.631 511.732 891.996 513.044C891.371 514.346 890.47 515.362 889.293 516.091C888.126 516.82 886.782 517.185 885.261 517.185C882.97 517.185 881.11 516.388 879.683 514.794C878.267 513.2 877.558 511.091 877.558 508.466V508.263ZM880.465 508.607C880.465 510.482 880.897 511.987 881.761 513.122C882.636 514.258 883.803 514.825 885.261 514.825C886.73 514.825 887.897 514.252 888.761 513.107C889.626 511.95 890.058 510.336 890.058 508.263C890.058 506.409 889.616 504.909 888.73 503.763C887.855 502.607 886.689 502.028 885.23 502.028C883.803 502.028 882.652 502.596 881.777 503.732C880.902 504.867 880.465 506.492 880.465 508.607ZM911.293 514.825C912.324 514.825 913.225 514.513 913.996 513.888C914.767 513.263 915.194 512.482 915.277 511.544H918.011C917.959 512.513 917.626 513.435 917.011 514.31C916.397 515.185 915.574 515.883 914.543 516.403C913.522 516.924 912.439 517.185 911.293 517.185C908.991 517.185 907.157 516.419 905.793 514.888C904.439 513.346 903.761 511.242 903.761 508.575V508.091C903.761 506.445 904.064 504.982 904.668 503.7C905.272 502.419 906.136 501.424 907.261 500.716C908.397 500.008 909.735 499.653 911.277 499.653C913.173 499.653 914.746 500.221 915.996 501.357C917.256 502.492 917.928 503.966 918.011 505.778H915.277C915.194 504.685 914.777 503.789 914.027 503.091C913.288 502.383 912.371 502.028 911.277 502.028C909.808 502.028 908.668 502.56 907.855 503.622C907.053 504.674 906.652 506.2 906.652 508.2V508.747C906.652 510.695 907.053 512.195 907.855 513.247C908.657 514.299 909.803 514.825 911.293 514.825ZM920.496 508.263C920.496 506.607 920.819 505.117 921.465 503.794C922.121 502.471 923.027 501.45 924.183 500.732C925.35 500.013 926.678 499.653 928.168 499.653C930.47 499.653 932.329 500.45 933.746 502.044C935.173 503.638 935.886 505.758 935.886 508.403V508.607C935.886 510.252 935.569 511.732 934.933 513.044C934.308 514.346 933.407 515.362 932.23 516.091C931.064 516.82 929.72 517.185 928.199 517.185C925.907 517.185 924.048 516.388 922.621 514.794C921.204 513.2 920.496 511.091 920.496 508.466V508.263ZM923.402 508.607C923.402 510.482 923.834 511.987 924.699 513.122C925.574 514.258 926.741 514.825 928.199 514.825C929.668 514.825 930.834 514.252 931.699 513.107C932.564 511.95 932.996 510.336 932.996 508.263C932.996 506.409 932.553 504.909 931.668 503.763C930.793 502.607 929.626 502.028 928.168 502.028C926.741 502.028 925.59 502.596 924.715 503.732C923.84 504.867 923.402 506.492 923.402 508.607ZM938.808 508.278C938.808 505.685 939.423 503.601 940.652 502.028C941.881 500.445 943.491 499.653 945.48 499.653C947.459 499.653 949.027 500.33 950.183 501.685V492.872H953.074V516.872H950.418L950.277 515.06C949.121 516.476 947.511 517.185 945.449 517.185C943.491 517.185 941.892 516.383 940.652 514.778C939.423 513.174 938.808 511.08 938.808 508.497V508.278ZM941.699 508.607C941.699 510.523 942.095 512.023 942.886 513.107C943.678 514.19 944.772 514.732 946.168 514.732C948.001 514.732 949.34 513.909 950.183 512.263V504.497C949.319 502.903 947.991 502.107 946.199 502.107C944.782 502.107 943.678 502.653 942.886 503.747C942.095 504.841 941.699 506.461 941.699 508.607ZM964.59 517.185C962.298 517.185 960.433 516.435 958.996 514.935C957.558 513.424 956.84 511.409 956.84 508.888V508.357C956.84 506.679 957.157 505.185 957.793 503.872C958.439 502.549 959.334 501.518 960.48 500.778C961.636 500.028 962.886 499.653 964.23 499.653C966.428 499.653 968.136 500.377 969.355 501.825C970.574 503.273 971.183 505.346 971.183 508.044V509.247H959.73C959.772 510.914 960.256 512.263 961.183 513.294C962.121 514.315 963.308 514.825 964.746 514.825C965.767 514.825 966.631 514.617 967.34 514.2C968.048 513.784 968.668 513.232 969.199 512.544L970.965 513.919C969.548 516.096 967.423 517.185 964.59 517.185ZM964.23 502.028C963.064 502.028 962.084 502.455 961.293 503.31C960.501 504.153 960.011 505.341 959.824 506.872H968.293V506.653C968.209 505.185 967.814 504.049 967.105 503.247C966.397 502.435 965.439 502.028 964.23 502.028Z" fill="#E38484"/>
<path d="M1157 567V213H811.689H478V567H1157Z" fill="#24285B"/>
<path d="M897 408H677V426H897V408Z" fill="#68E1FD"/>
<path d="M936 366H744V382H936V366Z" fill="#FFD200"/>
<path d="M923 479H825V497H923V479Z" fill="#FFD200"/>
<path d="M1003 447H744V464H1003V447Z" fill="#68E1FD"/>
<path d="M696 447H598V464H696V447Z" fill="white"/>
<path d="M791 485H696V506H791V485Z" fill="white"/>
<path d="M631 408H538V426H631V408Z" fill="white"/>
<path d="M524.5 246C531.956 246 538 243.538 538 240.5C538 237.462 531.956 235 524.5 235C517.044 235 511 237.462 511 240.5C511 243.538 517.044 246 524.5 246Z" fill="white"/>
<path d="M561 246C566.523 246 571 243.538 571 240.5C571 237.462 566.523 235 561 235C555.477 235 551 237.462 551 240.5C551 243.538 555.477 246 561 246Z" fill="#68E1FD"/>
<path d="M590.5 246C597.956 246 604 243.538 604 240.5C604 237.462 597.956 235 590.5 235C583.044 235 577 237.462 577 240.5C577 243.538 583.044 246 590.5 246Z" fill="#FFD200"/>
<path d="M631 289H538V301H631V289Z" fill="white"/>
<path d="M696 327H598V338H696V327Z" fill="white"/>
<path d="M936 327H744V338H936V327Z" fill="#FFD200"/>
<path d="M696 366H598V382H696V366Z" fill="white"/>
<path d="M871 289H672V301H871V289Z" fill="#68E1FD"/>
<path d="M1056 251H918V274H1056V251Z" fill="#68E1FD"/>
<path d="M1092 331H1019V375H1092V331Z" fill="#FFD200"/>
<path d="M1048.18 361.999C1047.79 362.001 1047.4 361.889 1047.09 361.683L1035.67 354.222C1035.46 354.087 1035.29 353.914 1035.18 353.717C1035.06 353.52 1035 353.303 1035 353.084C1035 352.865 1035.06 352.649 1035.18 352.452C1035.29 352.254 1035.46 352.082 1035.67 351.946L1047.09 344.322C1047.27 344.202 1047.48 344.112 1047.7 344.059C1047.92 344.005 1048.16 343.988 1048.39 344.009C1048.62 344.029 1048.84 344.087 1049.05 344.179C1049.25 344.272 1049.43 344.396 1049.57 344.545C1049.72 344.695 1049.83 344.867 1049.89 345.051C1049.96 345.235 1049.98 345.427 1049.95 345.618C1049.93 345.809 1049.86 345.993 1049.75 346.162C1049.63 346.33 1049.48 346.478 1049.3 346.598L1039.61 353.046L1049.29 359.374C1049.48 359.492 1049.64 359.642 1049.76 359.813C1049.88 359.985 1049.96 360.174 1049.99 360.371C1050.02 360.568 1050 360.767 1049.93 360.957C1049.86 361.147 1049.75 361.324 1049.59 361.476C1049.42 361.648 1049.21 361.784 1048.96 361.875C1048.72 361.966 1048.45 362.008 1048.18 361.999V361.999Z" fill="white"/>
<path d="M1067.65 361.999C1067.4 362.001 1067.16 361.952 1066.93 361.856C1066.71 361.759 1066.51 361.618 1066.36 361.443C1066.09 361.139 1065.96 360.753 1066.01 360.368C1066.07 359.984 1066.29 359.633 1066.63 359.393L1075.69 353.057L1066.62 346.602C1066.28 346.359 1066.06 346.006 1066.01 345.62C1065.96 345.235 1066.09 344.848 1066.36 344.546C1066.64 344.244 1067.04 344.05 1067.47 344.009C1067.91 343.967 1068.35 344.08 1068.69 344.323L1079.37 351.956C1079.57 352.092 1079.73 352.265 1079.84 352.462C1079.94 352.659 1080 352.876 1080 353.095C1080 353.315 1079.94 353.531 1079.84 353.729C1079.73 353.926 1079.57 354.099 1079.37 354.235L1068.69 361.705C1068.39 361.906 1068.03 362.01 1067.65 361.999Z" fill="white"/>
<path d="M1052.77 362C1052.52 361.998 1052.27 361.954 1052.04 361.869C1051.61 361.708 1051.28 361.414 1051.11 361.052C1050.95 360.691 1050.96 360.29 1051.16 359.939L1059.58 344.856C1059.78 344.504 1060.14 344.229 1060.58 344.093C1061.03 343.957 1061.52 343.971 1061.95 344.131C1062.38 344.292 1062.72 344.586 1062.89 344.949C1063.05 345.312 1063.04 345.714 1062.84 346.067L1054.4 361.149C1054.26 361.404 1054.03 361.621 1053.74 361.772C1053.45 361.923 1053.12 362.002 1052.77 362Z" fill="white"/>
</g>
<path d="M1287.91 297.684C1287.91 297.684 1274.33 321.407 1242.75 330.287C1211.17 339.167 1242.49 389.003 1242.49 389.003C1242.49 389.003 1231.1 370.881 1247.53 351.689C1263.96 332.497 1290.4 319.377 1287.91 297.684Z" fill="#FF6584"/>
<defs>
<clipPath id="clip0">
<rect width="1201.13" height="540.272" fill="white" transform="translate(58.2817 136.738)"/>
</clipPath>
</defs>
</svg>
