<svg width="1777" height="809" viewBox="0 0 1777 809" fill="none" xmlns="http://www.w3.org/2000/svg">
<path opacity="0.1" d="M734.57 52H663.43C659.327 52 656 55.3265 656 59.43V70.57C656 74.6735 659.327 78 663.43 78H734.57C738.673 78 742 74.6735 742 70.57V59.43C742 55.3265 738.673 52 734.57 52Z" fill="#6C63FF"/>
<path opacity="0.1" d="M734.57 0H663.43C659.327 0 656 3.32652 656 7.42999V18.57C656 22.6735 659.327 26 663.43 26H734.57C738.673 26 742 22.6735 742 18.57V7.42999C742 3.32652 738.673 0 734.57 0Z" fill="#6C63FF"/>
<path opacity="0.1" d="M329.57 221H258.43C254.327 221 251 224.327 251 228.43V239.57C251 243.673 254.327 247 258.43 247H329.57C333.673 247 337 243.673 337 239.57V228.43C337 224.327 333.673 221 329.57 221Z" fill="#6C63FF"/>
<path opacity="0.1" d="M329.57 182H258.43C254.327 182 251 185.327 251 189.43V200.57C251 204.673 254.327 208 258.43 208H329.57C333.673 208 337 204.673 337 200.57V189.43C337 185.327 333.673 182 329.57 182Z" fill="#6C63FF"/>
<path opacity="0.1" d="M519.57 195H448.43C444.327 195 441 198.327 441 202.43V213.57C441 217.673 444.327 221 448.43 221H519.57C523.673 221 527 217.673 527 213.57V202.43C527 198.327 523.673 195 519.57 195Z" fill="#6C63FF"/>
<path opacity="0.1" d="M609.57 221H538.43C534.327 221 531 224.327 531 228.43V239.57C531 243.673 534.327 247 538.43 247H609.57C613.673 247 617 243.673 617 239.57V228.43C617 224.327 613.673 221 609.57 221Z" fill="#6C63FF"/>
<path opacity="0.1" d="M429.57 130H358.43C354.327 130 351 133.327 351 137.43V148.57C351 152.673 354.327 156 358.43 156H429.57C433.673 156 437 152.673 437 148.57V137.43C437 133.327 433.673 130 429.57 130Z" fill="#6C63FF"/>
<path opacity="0.1" d="M609.57 182H538.43C534.327 182 531 185.327 531 189.43V200.57C531 204.673 534.327 208 538.43 208H609.57C613.673 208 617 204.673 617 200.57V189.43C617 185.327 613.673 182 609.57 182Z" fill="#6C63FF"/>
<path opacity="0.1" d="M329.57 130H258.43C254.327 130 251 133.327 251 137.43V148.57C251 152.673 254.327 156 258.43 156H329.57C333.673 156 337 152.673 337 148.57V137.43C337 133.327 333.673 130 329.57 130Z" fill="#6C63FF"/>
<path opacity="0.1" d="M329.57 91H258.43C254.327 91 251 94.3265 251 98.43V109.57C251 113.673 254.327 117 258.43 117H329.57C333.673 117 337 113.673 337 109.57V98.43C337 94.3265 333.673 91 329.57 91Z" fill="#6C63FF"/>
<path opacity="0.1" d="M429.57 78H358.43C354.327 78 351 81.3265 351 85.43V96.57C351 100.673 354.327 104 358.43 104H429.57C433.673 104 437 100.673 437 96.57V85.43C437 81.3265 433.673 78 429.57 78Z" fill="#6C63FF"/>
<path opacity="0.1" d="M519.57 104H448.43C444.327 104 441 107.327 441 111.43V122.57C441 126.673 444.327 130 448.43 130H519.57C523.673 130 527 126.673 527 122.57V111.43C527 107.327 523.673 104 519.57 104Z" fill="#6C63FF"/>
<path opacity="0.1" d="M609.57 130H538.43C534.327 130 531 133.327 531 137.43V148.57C531 152.673 534.327 156 538.43 156H609.57C613.673 156 617 152.673 617 148.57V137.43C617 133.327 613.673 130 609.57 130Z" fill="#6C63FF"/>
<path opacity="0.1" d="M429.57 39H358.43C354.327 39 351 42.3265 351 46.43V57.57C351 61.6735 354.327 65 358.43 65H429.57C433.673 65 437 61.6735 437 57.57V46.43C437 42.3265 433.673 39 429.57 39Z" fill="#6C63FF"/>
<path opacity="0.1" d="M519.57 65H448.43C444.327 65 441 68.3265 441 72.43V83.57C441 87.6735 444.327 91 448.43 91H519.57C523.673 91 527 87.6735 527 83.57V72.43C527 68.3265 523.673 65 519.57 65Z" fill="#6C63FF"/>
<path opacity="0.1" d="M609.57 91H538.43C534.327 91 531 94.3265 531 98.43V109.57C531 113.673 534.327 117 538.43 117H609.57C613.673 117 617 113.673 617 109.57V98.43C617 94.3265 613.673 91 609.57 91Z" fill="#6C63FF"/>
<path d="M1561.75 608.658L1535.8 614.234L1541.37 640.181L1567.33 634.606L1561.75 608.658Z" fill="#E6E6E6"/>
<path d="M1543.53 596.09L1550.31 627.598L1518.79 634.368L1512.02 602.86L1543.53 596.09ZM1548.64 626.523L1542.46 597.755L1513.69 603.936L1519.87 632.704L1548.64 626.523Z" fill="#CCCCCC"/>
<path opacity="0.1" d="M1309.57 344H1238.43C1234.33 344 1231 347.327 1231 351.43V362.57C1231 366.673 1234.33 370 1238.43 370H1309.57C1313.67 370 1317 366.673 1317 362.57V351.43C1317 347.327 1313.67 344 1309.57 344Z" fill="#6C63FF"/>
<path opacity="0.1" d="M1399.57 370H1328.43C1324.33 370 1321 373.327 1321 377.43V388.57C1321 392.673 1324.33 396 1328.43 396H1399.57C1403.67 396 1407 392.673 1407 388.57V377.43C1407 373.327 1403.67 370 1399.57 370Z" fill="#6C63FF"/>
<path opacity="0.1" d="M1589.57 344H1518.43C1514.33 344 1511 347.327 1511 351.43V362.57C1511 366.673 1514.33 370 1518.43 370H1589.57C1593.67 370 1597 366.673 1597 362.57V351.43C1597 347.327 1593.67 344 1589.57 344Z" fill="#6C63FF"/>
<path opacity="0.1" d="M1679.57 370H1608.43C1604.33 370 1601 373.327 1601 377.43V388.57C1601 392.673 1604.33 396 1608.43 396H1679.57C1683.67 396 1687 392.673 1687 388.57V377.43C1687 373.327 1683.67 370 1679.57 370Z" fill="#6C63FF"/>
<path opacity="0.1" d="M1309.57 292H1238.43C1234.33 292 1231 295.327 1231 299.43V310.57C1231 314.673 1234.33 318 1238.43 318H1309.57C1313.67 318 1317 314.673 1317 310.57V299.43C1317 295.327 1313.67 292 1309.57 292Z" fill="#6C63FF"/>
<path opacity="0.1" d="M1399.57 318H1328.43C1324.33 318 1321 321.327 1321 325.43V336.57C1321 340.673 1324.33 344 1328.43 344H1399.57C1403.67 344 1407 340.673 1407 336.57V325.43C1407 321.327 1403.67 318 1399.57 318Z" fill="#6C63FF"/>
<path opacity="0.1" d="M1489.57 344H1418.43C1414.33 344 1411 347.327 1411 351.43V362.57C1411 366.673 1414.33 370 1418.43 370H1489.57C1493.67 370 1497 366.673 1497 362.57V351.43C1497 347.327 1493.67 344 1489.57 344Z" fill="#6C63FF"/>
<path opacity="0.1" d="M1489.57 305H1418.43C1414.33 305 1411 308.327 1411 312.43V323.57C1411 327.673 1414.33 331 1418.43 331H1489.57C1493.67 331 1497 327.673 1497 323.57V312.43C1497 308.327 1493.67 305 1489.57 305Z" fill="#6C63FF"/>
<path opacity="0.1" d="M1589.57 292H1518.43C1514.33 292 1511 295.327 1511 299.43V310.57C1511 314.673 1514.33 318 1518.43 318H1589.57C1593.67 318 1597 314.673 1597 310.57V299.43C1597 295.327 1593.67 292 1589.57 292Z" fill="#6C63FF"/>
<path opacity="0.1" d="M1679.57 318H1608.43C1604.33 318 1601 321.327 1601 325.43V336.57C1601 340.673 1604.33 344 1608.43 344H1679.57C1683.67 344 1687 340.673 1687 336.57V325.43C1687 321.327 1683.67 318 1679.57 318Z" fill="#6C63FF"/>
<path opacity="0.1" d="M1769.57 344H1698.43C1694.33 344 1691 347.327 1691 351.43V362.57C1691 366.673 1694.33 370 1698.43 370H1769.57C1773.67 370 1777 366.673 1777 362.57V351.43C1777 347.327 1773.67 344 1769.57 344Z" fill="#6C63FF"/>
<path opacity="0.1" d="M1769.57 305H1698.43C1694.33 305 1691 308.327 1691 312.43V323.57C1691 327.673 1694.33 331 1698.43 331H1769.57C1773.67 331 1777 327.673 1777 323.57V312.43C1777 308.327 1773.67 305 1769.57 305Z" fill="#6C63FF"/>
<path d="M1313.36 375.369C1313.36 375.369 1329.22 400.517 1323.56 407.326C1317.89 414.135 1366.05 414.306 1366.05 414.306C1366.05 414.306 1358.82 377.723 1360.95 369.303L1313.36 375.369Z" fill="#FFB8B8"/>
<path opacity="0.1" d="M1313.36 375.369C1313.36 375.369 1329.22 400.517 1323.56 407.326C1317.89 414.135 1366.05 414.306 1366.05 414.306C1366.05 414.306 1358.82 377.723 1360.95 369.303L1313.36 375.369Z" fill="black"/>
<path d="M1338.71 384.483C1366.17 384.483 1388.44 362.223 1388.44 334.763C1388.44 307.304 1366.17 285.044 1338.71 285.044C1311.24 285.044 1288.98 307.304 1288.98 334.763C1288.98 362.223 1311.24 384.483 1338.71 384.483Z" fill="#FF6584"/>
<path d="M1455.67 604.257V633.732L1485.15 627.591L1482.7 606.713L1455.67 604.257Z" fill="#FFB8B8"/>
<path d="M1560.09 609.17L1642.39 622.679L1621.5 653.382C1621.5 653.382 1563.77 633.732 1549.03 633.732C1534.29 633.732 1560.09 609.17 1560.09 609.17Z" fill="#FFB8B8"/>
<path d="M1373.37 550.22C1373.37 550.22 1434.79 478.99 1454.44 482.674C1474.1 486.358 1482.7 508.464 1482.7 508.464L1493.75 617.766C1493.75 617.766 1454.44 621.451 1454.44 617.766C1454.44 614.082 1447.07 535.483 1447.07 535.483C1447.07 535.483 1389.34 663.207 1358.63 578.467L1373.37 550.22Z" fill="#2F2E41"/>
<path d="M1273.87 598.117C1273.87 598.117 1275.1 659.522 1311.95 663.207C1348.8 666.891 1389.34 638.644 1389.34 638.644L1455.67 606.873C1455.67 606.873 1534.29 648.469 1557.63 637.416C1557.63 637.416 1582.2 611.626 1566.23 604.257C1550.26 596.888 1565 604.257 1565 604.257L1470.41 555.133C1470.41 555.133 1451.99 550.22 1420.05 563.729C1388.11 577.239 1345.12 583.379 1345.12 583.379L1273.87 598.117Z" fill="#2F2E41"/>
<path d="M1335.29 388.109C1355.65 388.109 1372.14 371.614 1372.14 351.266C1372.14 330.917 1355.65 314.422 1335.29 314.422C1314.94 314.422 1298.44 330.917 1298.44 351.266C1298.44 371.614 1314.94 388.109 1335.29 388.109Z" fill="#FFB8B8"/>
<path d="M1388.11 454.427L1385.66 506.008C1385.66 506.008 1386.88 573.554 1375.83 578.467C1370.24 580.948 1359.01 585.934 1348.63 591.387C1340.84 595.464 1333.54 599.787 1329.46 603.508C1328.38 604.428 1327.44 605.509 1326.69 606.713C1321.78 615.31 1289.84 614.082 1282.47 607.942C1275.1 601.801 1280.02 615.31 1273.87 617.766C1267.93 620.149 1259.69 600.671 1264.73 571.589C1264.89 570.619 1265.08 569.637 1265.28 568.642C1270.91 540.457 1262.06 472.947 1263.42 446.862C1263.5 444.869 1263.71 442.884 1264.05 440.918C1267.73 421.268 1314.75 381.281 1323.55 398.315C1334.38 419.34 1359.27 400.132 1363.55 390.565C1388.11 389.337 1396.71 418.812 1396.71 418.812L1388.11 454.427Z" fill="#3F3D56"/>
<path d="M1487.61 622.679C1487.61 622.679 1467.96 630.048 1461.82 628.819C1455.67 627.591 1449.53 632.504 1449.53 639.872C1449.53 647.241 1442.16 664.435 1453.22 665.663C1464.27 666.891 1509.72 664.435 1519.55 668.119C1519.55 668.119 1563.77 669.347 1560.09 650.925C1556.4 632.504 1537.97 633.732 1537.97 633.732C1537.97 633.732 1487.61 631.276 1487.61 622.679Z" fill="#2F2E41"/>
<path d="M1631.33 626.363C1631.33 626.363 1633.79 618.995 1637.47 618.995C1641.16 618.995 1670.64 623.907 1674.32 622.679C1678.01 621.451 1721 618.995 1713.63 639.872C1706.26 660.75 1681.69 663.207 1681.69 663.207C1681.69 663.207 1637.47 658.294 1631.33 659.522C1625.19 660.75 1603.08 659.522 1606.76 653.382C1610.45 647.241 1633.79 636.188 1631.33 626.363Z" fill="#2F2E41"/>
<path d="M1519.52 449.961L1526.26 477.754C1526.33 478.064 1526.32 478.388 1526.22 478.692L1495.65 574.202C1495.53 574.581 1495.28 574.906 1494.95 575.124C1494.62 575.342 1494.22 575.44 1493.83 575.401C1493.43 575.362 1493.06 575.189 1492.78 574.91C1492.5 574.631 1492.32 574.264 1492.27 573.869L1488.04 536.662C1488.02 536.415 1488.04 536.165 1488.12 535.928L1516.18 449.832C1516.3 449.473 1516.53 449.162 1516.84 448.946C1517.15 448.73 1517.52 448.621 1517.9 448.635C1518.27 448.65 1518.64 448.787 1518.93 449.027C1519.22 449.266 1519.43 449.594 1519.52 449.961Z" fill="#D0CDE1"/>
<path d="M1517.04 452.309L1523.26 476.154L1496.3 563.243L1490.08 536.287L1517.04 452.309Z" fill="#F2F2F2"/>
<path d="M1381.19 581.906C1382.23 585.016 1489.04 580.869 1490.08 579.832C1490.98 578.534 1491.74 577.144 1492.36 575.685C1493.33 573.611 1494.22 571.538 1494.22 571.538L1490.08 537.967L1384.3 534.214C1384.3 534.214 1381.66 562.663 1381.12 575.685C1380.93 577.756 1380.96 579.84 1381.19 581.906Z" fill="#D0CDE1"/>
<path opacity="0.1" d="M1476.6 542.508L1478.67 571.538H1432V542.508H1476.6Z" fill="black"/>
<path opacity="0.1" d="M1416.45 551.839L1416.73 551.784L1415.41 564.281H1389.49V551.839H1416.45Z" fill="black"/>
<path opacity="0.1" d="M1381.19 581.906C1382.23 585.016 1489.04 580.869 1490.08 579.832C1490.98 578.534 1491.74 577.144 1492.36 575.685H1381.12C1380.93 577.756 1380.96 579.84 1381.19 581.906Z" fill="black"/>
<path d="M1364.67 246.262C1360.91 251.628 1355.34 255.456 1348.98 257.042C1338.01 259.979 1348.89 276.457 1348.89 276.457C1348.89 276.457 1344.94 270.465 1350.64 264.119C1356.35 257.773 1365.53 253.435 1364.67 246.262Z" fill="#FF6584"/>
<path d="M1346.95 294.267C1354.6 294.267 1360.81 288.063 1360.81 280.41C1360.81 272.758 1354.6 266.554 1346.95 266.554C1339.29 266.554 1333.09 272.758 1333.09 280.41C1333.09 288.063 1339.29 294.267 1346.95 294.267Z" fill="#FF6584"/>
<path d="M1364.64 292.024C1353.34 287.752 1334.53 285.585 1324.85 287.066L1326.18 277.376C1335.48 282.184 1354.21 284.443 1365.97 282.334L1364.64 292.024Z" fill="#3F3D56"/>
<path d="M1343.9 294.062C1343.9 294.062 1357.51 326.406 1372.44 329.463C1387.37 332.521 1386.24 383.628 1362.89 391.291C1362.89 391.291 1379.92 361.331 1365.36 341.237C1350.8 321.144 1341.61 305.26 1343.9 294.062Z" fill="#FF6584"/>
<path opacity="0.1" d="M1348.63 591.387C1345.6 597.122 1342.04 603.078 1341.43 605.485C1341.03 607.119 1336.53 606.173 1329.46 603.508C1315.27 598.141 1290.68 585.848 1267.73 573.554C1266.67 572.993 1265.67 572.335 1264.73 571.589C1264.89 570.619 1265.08 569.637 1265.28 568.642C1270.91 540.457 1262.06 472.947 1263.42 446.862L1273.87 443.374L1294.76 463.024V546.536C1294.76 546.536 1348.8 576.01 1352.49 578.467C1354.37 579.719 1351.78 585.43 1348.63 591.387Z" fill="black"/>
<path d="M1394.25 524.43L1427.42 541.623C1427.42 541.623 1447.07 520.745 1459.36 536.711C1471.64 552.676 1423.74 557.589 1423.74 557.589C1423.74 557.589 1381.97 547.764 1380.74 534.255C1379.51 520.745 1394.25 524.43 1394.25 524.43Z" fill="#FFB8B8"/>
<path d="M1338.98 569.87L1358.63 574.782C1358.63 574.782 1380.74 547.764 1404.08 557.589C1427.42 567.414 1374.6 587.064 1374.6 587.064C1374.6 587.064 1346.35 601.801 1335.29 589.52C1324.24 577.239 1338.98 569.87 1338.98 569.87Z" fill="#FFB8B8"/>
<path d="M1381.97 407.759C1383.2 408.987 1396.71 418.812 1396.71 418.812C1396.71 418.812 1400.4 465.48 1395.48 475.305C1390.57 485.13 1386.88 485.13 1390.57 490.042C1394.25 494.955 1399.17 491.271 1394.25 499.867C1389.34 508.464 1384.43 507.236 1388.11 510.92C1391.8 514.605 1390.57 515.833 1390.57 515.833L1405.31 528.114C1405.31 528.114 1396.27 542.515 1384.82 541.455C1373.37 540.395 1363.55 485.13 1363.55 485.13L1381.97 407.759Z" fill="#3F3D56"/>
<path d="M1273.87 437.234L1262.82 440.918C1262.82 440.918 1233.34 548.992 1267.73 567.414C1302.13 585.835 1340.21 604.257 1341.43 599.345C1342.66 594.432 1356.17 574.782 1352.49 572.326C1348.8 569.87 1294.76 540.395 1294.76 540.395V456.883L1273.87 437.234Z" fill="#3F3D56"/>
<path opacity="0.1" d="M1290.46 482.06L1288 541.009L1353.1 571.712L1292.91 541.009L1290.46 482.06Z" fill="black"/>
<g clip-path="url(#clip0)">
<path d="M335.638 434.918C335.649 433.272 335.321 431.641 334.674 430.127C334.027 428.614 333.075 427.25 331.877 426.121C330.679 424.992 329.261 424.121 327.711 423.565C326.162 423.008 324.514 422.777 322.871 422.885C321.229 422.994 319.626 423.44 318.163 424.195C316.7 424.951 315.409 426 314.37 427.277C313.331 428.554 312.566 430.031 312.124 431.616C311.681 433.202 311.571 434.862 311.799 436.492L277.386 481.547C275.918 484.483 275.349 487.787 275.75 491.045C276.151 494.303 277.505 497.37 279.641 499.863L282.341 503.011L294.727 500.535L308.764 488.151L307.113 474.117L324.453 446.873L324.431 446.853C327.466 446.66 330.314 445.319 332.396 443.102C334.477 440.885 335.637 437.958 335.638 434.918Z" fill="#FFB9B9"/>
<path d="M97.6662 655.184L92.0489 634.326L169.844 602.74L178.135 633.524L97.6662 655.184Z" fill="#FFB8B8"/>
<path d="M78.876 665.948L60.7647 598.693L61.6155 598.464C68.5595 596.595 75.9616 597.561 82.1938 601.148C88.426 604.735 92.9778 610.65 94.848 617.592L94.8484 617.594L105.91 658.671L78.876 665.948Z" fill="#2F2E41"/>
<path d="M204.826 651.851L187.354 639.148L228.051 565.72L253.839 584.47L204.826 651.851Z" fill="#FFB8B8"/>
<path d="M196.965 672.026L140.625 631.062L141.143 630.349C145.373 624.535 151.739 620.638 158.842 619.516C165.945 618.395 173.203 620.14 179.02 624.368L179.021 624.369L213.432 649.388L196.965 672.026Z" fill="#2F2E41"/>
<path d="M353.354 549.243L309.384 506.538C305.547 502.811 300.492 500.594 295.151 500.296C289.809 499.998 284.539 501.638 280.311 504.914L197.289 597.126L204.721 608.683L283.992 555.021L337.665 625.194L388.86 599.602L353.354 549.243Z" fill="#2F2E41"/>
<path d="M334.362 558.324L302.158 555.847L278.836 550.195C277.519 548.14 275.605 546.536 273.351 545.599C271.098 544.662 268.611 544.435 266.225 544.95C263.839 545.464 261.667 546.696 260 548.478C258.332 550.261 257.25 552.511 256.897 554.926C256.544 557.34 256.937 559.806 258.024 561.991C259.111 564.176 260.839 565.977 262.979 567.153C265.118 568.329 267.565 568.824 269.993 568.571C272.421 568.318 274.713 567.329 276.564 565.737L276.56 565.754L290.598 571.533L350.877 592.172L358.308 586.393L334.362 558.324Z" fill="#FFB9B9"/>
<path d="M411.981 647.485L393.815 659.043H372.345L272.432 621.893L126.276 648.311L122.148 616.938L255.918 558.324L373.172 597.125L411.981 647.485Z" fill="#2F2E41"/>
<path d="M373.172 446.873C390.957 446.873 405.376 432.458 405.376 414.676C405.376 396.894 390.957 382.479 373.172 382.479C355.386 382.479 340.968 396.894 340.968 414.676C340.968 432.458 355.386 446.873 373.172 446.873Z" fill="#FFB9B9"/>
<path d="M456.497 543.224C456.497 562.656 453.434 581.966 447.422 600.444L445.011 607.858L433.451 660.694L421.065 663.996L411.981 652.438L393.815 639.229L380.603 617.765L369.274 598.892L365.74 592.998L353.354 531.08L306.287 504.662L290.598 502.186L293.901 493.105L307.939 474.117L321.976 472.465L326.105 469.163L329.408 470.814L347.615 477.827L406.647 452.891L415.284 454.303L445.011 479.07C452.61 499.606 456.499 521.328 456.497 543.224Z" fill="#CCCCCC"/>
<path opacity="0.1" d="M447.487 536.034L416.11 556.673L369.274 598.891L365.74 592.998L355.831 543.464H358.309L383.907 496.408L447.487 536.034Z" fill="black"/>
<path d="M383.907 491.453L358.309 538.51L343.445 555.022L330.234 558.324L365.74 597.125L416.11 551.72L447.487 531.08L383.907 491.453Z" fill="#CCCCCC"/>
<path d="M348.124 390.736L344.635 392.078C344.105 391.72 343.651 391.26 343.299 390.727C342.947 390.193 342.703 389.595 342.582 388.967C342.462 388.339 342.465 387.693 342.594 387.067C342.723 386.44 342.974 385.845 343.332 385.316C343.351 385.288 343.37 385.26 343.389 385.233L336.941 384.931C341.081 379.42 346.343 374.85 352.381 371.524C358.419 368.198 365.094 366.191 371.966 365.638C378.837 365.084 385.748 365.995 392.24 368.312C398.733 370.628 404.66 374.296 409.629 379.074C409.922 378.063 413.122 380.029 414.429 382.024C414.868 380.379 417.868 388.33 418.93 393.951C419.421 392.08 421.31 395.101 419.655 398C420.704 397.847 421.177 400.529 420.366 402.023C421.513 401.485 421.32 404.687 420.076 406.827C421.713 406.681 419.936 440.392 395.368 437.936C393.658 430.079 394.14 430.567 392.126 420.465C391.189 419.47 390.162 418.564 389.137 417.659L383.594 412.767C377.148 407.079 371.285 400.058 362.698 397.932C356.797 396.471 353.066 396.141 356.282 389.493C353.376 390.705 350.663 392.508 347.732 393.634C347.771 392.705 348.181 391.666 348.124 390.736Z" fill="#2F2E41"/>
<path d="M389.274 424.17C392.466 424.17 395.054 421.583 395.054 418.391C395.054 415.199 392.466 412.612 389.274 412.612C386.081 412.612 383.494 415.199 383.494 418.391C383.494 421.583 386.081 424.17 389.274 424.17Z" fill="#FFB9B9"/>
<path d="M1244.03 135.731H458.628C455.789 135.731 452.978 136.29 450.355 137.377C447.732 138.463 445.349 140.055 443.342 142.062C441.335 144.069 439.742 146.451 438.656 149.073C437.57 151.696 437.01 154.506 437.01 157.344V594.863C437.01 597.701 437.57 600.511 438.656 603.134C439.742 605.756 441.335 608.139 443.342 610.146C445.349 612.152 447.732 613.744 450.355 614.831C452.978 615.917 455.789 616.476 458.628 616.476H1244.03C1249.76 616.476 1255.26 614.199 1259.31 610.145C1263.37 606.092 1265.65 600.595 1265.65 594.863V157.344C1265.65 151.612 1263.37 146.115 1259.31 142.062C1255.26 138.009 1249.76 135.731 1244.03 135.731Z" fill="#3F3D56"/>
<path d="M1242.94 173.803H472.27V608.449H1242.94V173.803Z" fill="white"/>
<path d="M850.67 162.074C855.035 162.074 858.574 158.535 858.574 154.171C858.574 149.806 855.035 146.268 850.67 146.268C846.304 146.268 842.765 149.806 842.765 154.171C842.765 158.535 846.304 162.074 850.67 162.074Z" fill="white"/>
<path d="M1126.36 343.585H918.158V350.031H1126.36V343.585Z" fill="#3F3D56"/>
<path d="M1126.36 368.908H918.158V375.353H1126.36V368.908Z" fill="#3F3D56"/>
<path d="M1287.29 600.67H1212.07V595.253C1212.07 595.112 1212.04 594.972 1211.99 594.841C1211.94 594.711 1211.86 594.593 1211.76 594.493C1211.66 594.393 1211.54 594.314 1211.41 594.26C1211.28 594.206 1211.14 594.178 1211 594.178H1185.21C1185.07 594.178 1184.93 594.206 1184.8 594.26C1184.67 594.314 1184.55 594.393 1184.45 594.493C1184.35 594.593 1184.27 594.711 1184.22 594.841C1184.16 594.972 1184.14 595.111 1184.14 595.252V600.67H1168.02V595.253C1168.02 595.112 1167.99 594.972 1167.94 594.841C1167.88 594.711 1167.8 594.593 1167.7 594.493C1167.61 594.393 1167.49 594.314 1167.36 594.26C1167.23 594.206 1167.09 594.178 1166.95 594.178H1141.16C1141.02 594.178 1140.88 594.206 1140.75 594.26C1140.62 594.314 1140.5 594.393 1140.4 594.493C1140.3 594.593 1140.22 594.711 1140.17 594.841C1140.11 594.972 1140.08 595.112 1140.08 595.253V600.67H1123.97V595.253C1123.97 595.112 1123.94 594.972 1123.88 594.841C1123.83 594.711 1123.75 594.593 1123.65 594.493C1123.55 594.393 1123.43 594.314 1123.3 594.26C1123.17 594.206 1123.03 594.178 1122.89 594.178H1097.1C1096.96 594.178 1096.82 594.206 1096.69 594.26C1096.56 594.314 1096.44 594.393 1096.35 594.493C1096.25 594.593 1096.17 594.711 1096.11 594.841C1096.06 594.972 1096.03 595.112 1096.03 595.253V600.67H1079.91V595.253C1079.91 595.112 1079.89 594.972 1079.83 594.841C1079.78 594.711 1079.7 594.593 1079.6 594.493C1079.5 594.393 1079.38 594.314 1079.25 594.26C1079.12 594.206 1078.98 594.178 1078.84 594.178H1053.05C1052.91 594.178 1052.77 594.206 1052.64 594.26C1052.51 594.314 1052.39 594.393 1052.29 594.493C1052.19 594.593 1052.11 594.711 1052.06 594.841C1052.01 594.972 1051.98 595.111 1051.98 595.252V600.67H1035.86V595.253C1035.86 595.112 1035.83 594.972 1035.78 594.841C1035.72 594.711 1035.65 594.593 1035.55 594.493C1035.45 594.393 1035.33 594.314 1035.2 594.26C1035.07 594.206 1034.93 594.178 1034.79 594.178H1009C1008.86 594.178 1008.72 594.206 1008.59 594.26C1008.46 594.314 1008.34 594.393 1008.24 594.493C1008.14 594.593 1008.06 594.711 1008.01 594.841C1007.95 594.972 1007.92 595.112 1007.92 595.253V600.67H991.808V595.253C991.808 595.112 991.78 594.972 991.726 594.841C991.672 594.711 991.593 594.593 991.493 594.493C991.393 594.393 991.275 594.314 991.144 594.26C991.014 594.206 990.874 594.178 990.733 594.178H964.946C964.805 594.178 964.665 594.206 964.535 594.26C964.404 594.314 964.286 594.393 964.186 594.493C964.086 594.593 964.007 594.711 963.953 594.841C963.899 594.972 963.872 595.112 963.872 595.253V600.67H947.755V595.253C947.755 595.112 947.727 594.972 947.673 594.841C947.619 594.711 947.54 594.593 947.44 594.493C947.34 594.393 947.222 594.314 947.091 594.26C946.961 594.206 946.821 594.178 946.68 594.178H744.681C744.54 594.178 744.4 594.206 744.27 594.26C744.139 594.314 744.021 594.393 743.921 594.493C743.821 594.593 743.742 594.711 743.688 594.841C743.634 594.972 743.606 595.112 743.606 595.253V600.67H727.489V595.253C727.489 595.112 727.462 594.972 727.408 594.841C727.354 594.711 727.274 594.593 727.175 594.493C727.075 594.393 726.956 594.314 726.826 594.26C726.696 594.206 726.556 594.178 726.415 594.178H700.628C700.487 594.178 700.347 594.206 700.217 594.26C700.086 594.314 699.968 594.393 699.868 594.493C699.768 594.593 699.689 594.711 699.635 594.841C699.581 594.972 699.553 595.112 699.553 595.253V600.67H683.436V595.253C683.436 595.112 683.409 594.972 683.355 594.841C683.301 594.711 683.222 594.593 683.122 594.493C683.022 594.393 682.904 594.314 682.773 594.26C682.643 594.206 682.503 594.178 682.362 594.178H656.575C656.434 594.178 656.294 594.206 656.164 594.26C656.033 594.314 655.915 594.393 655.815 594.493C655.715 594.593 655.636 594.711 655.582 594.841C655.528 594.972 655.5 595.112 655.5 595.253V600.67H639.383V595.253C639.383 595.112 639.356 594.972 639.302 594.841C639.248 594.711 639.168 594.593 639.069 594.493C638.969 594.393 638.85 594.314 638.72 594.26C638.59 594.206 638.45 594.178 638.309 594.178H612.522C612.381 594.178 612.241 594.206 612.111 594.26C611.98 594.314 611.862 594.393 611.762 594.493C611.662 594.593 611.583 594.711 611.529 594.841C611.475 594.972 611.447 595.112 611.447 595.253V600.67H595.33V595.253C595.33 595.112 595.303 594.972 595.249 594.841C595.195 594.711 595.115 594.593 595.016 594.493C594.916 594.393 594.797 594.314 594.667 594.26C594.537 594.206 594.397 594.178 594.256 594.178H568.469C568.328 594.178 568.188 594.206 568.058 594.26C567.927 594.314 567.809 594.393 567.709 594.493C567.609 594.593 567.53 594.711 567.476 594.841C567.422 594.972 567.394 595.112 567.394 595.253V600.67H551.277V595.253C551.277 595.112 551.25 594.972 551.196 594.841C551.142 594.711 551.062 594.593 550.963 594.493C550.863 594.393 550.744 594.314 550.614 594.26C550.484 594.206 550.344 594.178 550.203 594.178H524.416C524.131 594.178 523.857 594.292 523.656 594.493C523.454 594.694 523.341 594.968 523.341 595.252V600.67H507.224V595.253C507.224 595.112 507.197 594.972 507.143 594.841C507.089 594.711 507.009 594.593 506.91 594.493C506.81 594.393 506.691 594.314 506.561 594.26C506.431 594.206 506.291 594.178 506.15 594.178H480.363C480.078 594.178 479.804 594.292 479.603 594.493C479.401 594.694 479.288 594.968 479.288 595.253V600.67H429.863C423.024 600.67 416.465 603.387 411.629 608.222C406.793 613.057 404.076 619.614 404.076 626.452V638.11C404.076 644.948 406.793 651.505 411.629 656.34C416.465 661.175 423.024 663.892 429.863 663.892H1287.29C1294.12 663.892 1300.68 661.175 1305.52 656.34C1310.36 651.505 1313.07 644.948 1313.07 638.11V626.452C1313.07 623.066 1312.41 619.714 1311.11 616.586C1309.81 613.458 1307.91 610.616 1305.52 608.222C1303.12 605.828 1300.28 603.929 1297.15 602.633C1294.02 601.337 1290.67 600.67 1287.29 600.67Z" fill="#3F3D56"/>
<path d="M622.131 243.805C624.845 243.805 627.045 241.606 627.045 238.893C627.045 236.18 624.845 233.981 622.131 233.981C619.418 233.981 617.218 236.18 617.218 238.893C617.218 241.606 619.418 243.805 622.131 243.805Z" fill="#6C63FF"/>
<path d="M635.644 243.805C638.357 243.805 640.557 241.606 640.557 238.893C640.557 236.18 638.357 233.981 635.644 233.981C632.93 233.981 630.73 236.18 630.73 238.893C630.73 241.606 632.93 243.805 635.644 243.805Z" fill="#6C63FF"/>
<path d="M649.156 243.805C651.869 243.805 654.069 241.606 654.069 238.893C654.069 236.18 651.869 233.981 649.156 233.981C646.442 233.981 644.242 236.18 644.242 238.893C644.242 241.606 646.442 243.805 649.156 243.805Z" fill="#6C63FF"/>
<path opacity="0.3" d="M763.394 424.182H692.149V431.55H763.394V424.182Z" fill="#6C63FF"/>
<path opacity="0.3" d="M759.543 440.147H692.149V447.516H759.543V440.147Z" fill="#6C63FF"/>
<path opacity="0.3" d="M741.251 456.113H692.149V463.481H741.251V456.113Z" fill="#6C63FF"/>
<g opacity="0.3">
<path opacity="0.3" d="M929.225 424.182H857.979V431.55H929.225V424.182Z" fill="#6C63FF"/>
<path opacity="0.3" d="M925.374 440.147H857.979V447.516H925.374V440.147Z" fill="#6C63FF"/>
<path opacity="0.3" d="M907.081 456.113H857.979V463.481H907.081V456.113Z" fill="#6C63FF"/>
<path opacity="0.3" d="M929.225 424.182H857.979V431.55H929.225V424.182Z" fill="#6C63FF"/>
<path opacity="0.3" d="M925.374 440.147H857.979V447.516H925.374V440.147Z" fill="#6C63FF"/>
<path opacity="0.3" d="M907.081 456.113H857.979V463.481H907.081V456.113Z" fill="#6C63FF"/>
</g>
<path opacity="0.3" d="M1101.2 424.182H1029.95V431.55H1101.2V424.182Z" fill="#6C63FF"/>
<path opacity="0.3" d="M1097.35 440.147H1029.95V447.516H1097.35V440.147Z" fill="#6C63FF"/>
<path opacity="0.3" d="M1079.05 456.113H1029.95V463.481H1079.05V456.113Z" fill="#6C63FF"/>
<path opacity="0.3" d="M773.221 328.389H682.322V409.444H773.221V328.389Z" fill="#6C63FF"/>
<path d="M939.052 328.389H848.152V409.444H939.052V328.389Z" fill="#3F3D56"/>
<path d="M1111.02 328.389H1020.12V409.444H1111.02V328.389Z" fill="#3F3D56"/>
<path d="M881.759 409.104L880.56 409.08C880.585 407.752 881.335 376.46 893.657 367.811L894.345 368.792C882.521 377.092 881.765 408.785 881.759 409.104Z" fill="#6C63FF"/>
<path d="M899.997 367.415C903.309 367.415 905.993 364.731 905.993 361.42C905.993 358.109 903.309 355.425 899.997 355.425C896.686 355.425 894.001 358.109 894.001 361.42C894.001 364.731 896.686 367.415 899.997 367.415Z" fill="#6C63FF"/>
<path d="M898.785 382.588C895.666 383.567 892.344 383.71 889.153 383.003C891.179 380.424 893.909 378.485 897.012 377.421C900.116 376.356 903.461 376.212 906.644 377.005C904.559 379.522 901.848 381.447 898.785 382.588Z" fill="#6C63FF"/>
<path d="M1053.73 409.104L1052.53 409.08C1052.56 407.752 1053.31 376.46 1065.63 367.811L1066.32 368.792C1054.49 377.092 1053.74 408.785 1053.73 409.104Z" fill="#6C63FF"/>
<path d="M1071.97 367.415C1075.28 367.415 1077.97 364.731 1077.97 361.42C1077.97 358.109 1075.28 355.425 1071.97 355.425C1068.66 355.425 1065.97 358.109 1065.97 361.42C1065.97 364.731 1068.66 367.415 1071.97 367.415Z" fill="#6C63FF"/>
<path d="M1070.76 382.588C1067.64 383.567 1064.32 383.71 1061.12 383.003C1063.15 380.424 1065.88 378.485 1068.98 377.421C1072.09 376.356 1075.43 376.212 1078.62 377.005C1076.53 379.522 1073.82 381.447 1070.76 382.588Z" fill="#6C63FF"/>
<path d="M1192.1 553.29H603.706V214.331H1192.1V553.29ZM606.163 550.843H1189.64V216.778H606.163V550.843Z" fill="#2F2E41"/>
<path d="M1189.64 250.026H603.706V252.482H1189.64V250.026Z" fill="#2F2E41"/>
<path d="M744.483 510.835H755.264V513.288H741.468V490.538H744.483V510.835ZM765.249 513.6C762.957 513.6 761.093 512.85 759.655 511.35C758.218 509.84 757.499 507.824 757.499 505.303V504.772C757.499 503.095 757.816 501.6 758.452 500.288C759.098 498.965 759.994 497.934 761.139 497.194C762.296 496.444 763.546 496.069 764.889 496.069C767.087 496.069 768.796 496.793 770.014 498.241C771.233 499.689 771.843 501.762 771.843 504.46V505.663H760.389C760.431 507.329 760.915 508.678 761.843 509.71C762.78 510.73 763.968 511.241 765.405 511.241C766.426 511.241 767.29 511.033 767.999 510.616C768.707 510.199 769.327 509.647 769.858 508.96L771.624 510.335C770.207 512.512 768.082 513.6 765.249 513.6ZM764.889 498.444C763.723 498.444 762.744 498.871 761.952 499.725C761.16 500.569 760.671 501.757 760.483 503.288H768.952V503.069C768.869 501.6 768.473 500.465 767.764 499.663C767.056 498.85 766.098 498.444 764.889 498.444ZM779.124 492.288V496.382H782.28V498.616H779.124V509.1C779.124 509.777 779.264 510.288 779.546 510.632C779.827 510.965 780.306 511.132 780.983 511.132C781.316 511.132 781.775 511.069 782.358 510.944V513.288C781.598 513.496 780.858 513.6 780.139 513.6C778.848 513.6 777.874 513.21 777.218 512.428C776.561 511.647 776.233 510.538 776.233 509.1V498.616H773.155V496.382H776.233V492.288H779.124ZM795.514 508.803C795.514 508.022 795.218 507.418 794.624 506.991C794.04 506.553 793.014 506.178 791.546 505.866C790.087 505.553 788.926 505.178 788.061 504.741C787.207 504.303 786.572 503.783 786.155 503.178C785.749 502.574 785.546 501.855 785.546 501.022C785.546 499.637 786.129 498.465 787.296 497.507C788.473 496.548 789.973 496.069 791.796 496.069C793.712 496.069 795.264 496.564 796.452 497.553C797.65 498.543 798.249 499.809 798.249 501.35H795.343C795.343 500.559 795.004 499.876 794.327 499.303C793.66 498.73 792.816 498.444 791.796 498.444C790.744 498.444 789.921 498.673 789.327 499.132C788.733 499.59 788.436 500.189 788.436 500.928C788.436 501.626 788.712 502.152 789.264 502.507C789.816 502.861 790.811 503.199 792.249 503.522C793.697 503.845 794.869 504.23 795.764 504.678C796.66 505.126 797.322 505.668 797.749 506.303C798.186 506.928 798.405 507.694 798.405 508.6C798.405 510.111 797.801 511.324 796.593 512.241C795.384 513.147 793.816 513.6 791.889 513.6C790.535 513.6 789.337 513.361 788.296 512.882C787.254 512.402 786.436 511.736 785.843 510.882C785.259 510.017 784.968 509.085 784.968 508.085H787.858C787.91 509.053 788.296 509.824 789.014 510.397C789.744 510.96 790.702 511.241 791.889 511.241C792.983 511.241 793.858 511.022 794.514 510.585C795.181 510.137 795.514 509.543 795.514 508.803ZM810.561 513.288V490.538H817.999C820.468 490.538 822.322 491.048 823.561 492.069C824.811 493.09 825.436 494.6 825.436 496.6C825.436 497.663 825.134 498.605 824.53 499.428C823.926 500.241 823.103 500.871 822.061 501.319C823.29 501.663 824.259 502.319 824.968 503.288C825.686 504.246 826.046 505.392 826.046 506.725C826.046 508.767 825.384 510.371 824.061 511.538C822.738 512.704 820.869 513.288 818.452 513.288H810.561ZM813.561 502.647V510.835H818.514C819.91 510.835 821.009 510.475 821.811 509.757C822.624 509.027 823.03 508.027 823.03 506.757C823.03 504.017 821.54 502.647 818.561 502.647H813.561ZM813.561 500.241H818.093C819.405 500.241 820.452 499.913 821.233 499.257C822.025 498.6 822.421 497.71 822.421 496.585C822.421 495.335 822.056 494.428 821.327 493.866C820.598 493.293 819.488 493.007 817.999 493.007H813.561V500.241ZM837.061 513.6C834.77 513.6 832.905 512.85 831.468 511.35C830.03 509.84 829.311 507.824 829.311 505.303V504.772C829.311 503.095 829.629 501.6 830.264 500.288C830.91 498.965 831.806 497.934 832.952 497.194C834.108 496.444 835.358 496.069 836.702 496.069C838.9 496.069 840.608 496.793 841.827 498.241C843.046 499.689 843.655 501.762 843.655 504.46V505.663H832.202C832.244 507.329 832.728 508.678 833.655 509.71C834.593 510.73 835.78 511.241 837.218 511.241C838.238 511.241 839.103 511.033 839.811 510.616C840.52 510.199 841.139 509.647 841.671 508.96L843.436 510.335C842.02 512.512 839.895 513.6 837.061 513.6ZM836.702 498.444C835.535 498.444 834.556 498.871 833.764 499.725C832.973 500.569 832.483 501.757 832.296 503.288H840.764V503.069C840.681 501.6 840.285 500.465 839.577 499.663C838.869 498.85 837.91 498.444 836.702 498.444ZM846.327 504.694C846.327 502.059 846.936 499.965 848.155 498.413C849.374 496.85 850.988 496.069 852.999 496.069C855.061 496.069 856.671 496.798 857.827 498.257L857.968 496.382H860.608V512.882C860.608 515.069 859.957 516.793 858.655 518.053C857.363 519.314 855.624 519.944 853.436 519.944C852.218 519.944 851.025 519.684 849.858 519.163C848.691 518.642 847.801 517.928 847.186 517.022L848.686 515.288C849.926 516.819 851.441 517.585 853.233 517.585C854.639 517.585 855.733 517.189 856.514 516.397C857.306 515.605 857.702 514.491 857.702 513.053V511.6C856.546 512.934 854.968 513.6 852.968 513.6C850.988 513.6 849.384 512.803 848.155 511.21C846.936 509.616 846.327 507.444 846.327 504.694ZM849.233 505.022C849.233 506.928 849.624 508.428 850.405 509.522C851.186 510.605 852.28 511.147 853.686 511.147C855.509 511.147 856.848 510.319 857.702 508.663V500.944C856.816 499.329 855.488 498.522 853.718 498.522C852.311 498.522 851.212 499.069 850.421 500.163C849.629 501.257 849.233 502.876 849.233 505.022ZM868.124 513.288H865.233V496.382H868.124V513.288ZM864.999 491.897C864.999 491.428 865.139 491.033 865.421 490.71C865.712 490.387 866.139 490.225 866.702 490.225C867.264 490.225 867.691 490.387 867.983 490.71C868.275 491.033 868.421 491.428 868.421 491.897C868.421 492.366 868.275 492.757 867.983 493.069C867.691 493.382 867.264 493.538 866.702 493.538C866.139 493.538 865.712 493.382 865.421 493.069C865.139 492.757 864.999 492.366 864.999 491.897ZM875.499 496.382L875.593 498.507C876.884 496.882 878.572 496.069 880.655 496.069C884.228 496.069 886.03 498.085 886.061 502.116V513.288H883.171V502.1C883.16 500.882 882.879 499.98 882.327 499.397C881.785 498.814 880.936 498.522 879.78 498.522C878.843 498.522 878.02 498.772 877.311 499.272C876.603 499.772 876.051 500.428 875.655 501.241V513.288H872.764V496.382H875.499ZM902.28 492.288V496.382H905.436V498.616H902.28V509.1C902.28 509.777 902.421 510.288 902.702 510.632C902.983 510.965 903.462 511.132 904.139 511.132C904.473 511.132 904.931 511.069 905.514 510.944V513.288C904.754 513.496 904.014 513.6 903.296 513.6C902.004 513.6 901.03 513.21 900.374 512.428C899.718 511.647 899.389 510.538 899.389 509.1V498.616H896.311V496.382H899.389V492.288H902.28ZM907.749 504.678C907.749 503.022 908.072 501.533 908.718 500.21C909.374 498.887 910.28 497.866 911.436 497.147C912.603 496.428 913.931 496.069 915.421 496.069C917.723 496.069 919.582 496.866 920.999 498.46C922.426 500.053 923.139 502.173 923.139 504.819V505.022C923.139 506.668 922.822 508.147 922.186 509.46C921.561 510.762 920.66 511.777 919.483 512.507C918.316 513.236 916.973 513.6 915.452 513.6C913.16 513.6 911.301 512.803 909.874 511.21C908.457 509.616 907.749 507.507 907.749 504.882V504.678ZM910.655 505.022C910.655 506.897 911.087 508.402 911.952 509.538C912.827 510.673 913.994 511.241 915.452 511.241C916.921 511.241 918.087 510.668 918.952 509.522C919.816 508.366 920.249 506.751 920.249 504.678C920.249 502.824 919.806 501.324 918.921 500.178C918.046 499.022 916.879 498.444 915.421 498.444C913.994 498.444 912.843 499.012 911.968 500.147C911.093 501.283 910.655 502.908 910.655 505.022ZM941.483 511.241C942.514 511.241 943.415 510.928 944.186 510.303C944.957 509.678 945.384 508.897 945.468 507.96H948.202C948.15 508.928 947.816 509.85 947.202 510.725C946.587 511.6 945.764 512.298 944.733 512.819C943.712 513.34 942.629 513.6 941.483 513.6C939.181 513.6 937.348 512.835 935.983 511.303C934.629 509.762 933.952 507.658 933.952 504.991V504.507C933.952 502.861 934.254 501.397 934.858 500.116C935.462 498.835 936.327 497.84 937.452 497.132C938.587 496.423 939.926 496.069 941.468 496.069C943.363 496.069 944.936 496.637 946.186 497.772C947.447 498.908 948.119 500.382 948.202 502.194H945.468C945.384 501.1 944.968 500.204 944.218 499.507C943.478 498.798 942.561 498.444 941.468 498.444C939.999 498.444 938.858 498.975 938.046 500.038C937.244 501.09 936.843 502.616 936.843 504.616V505.163C936.843 507.111 937.244 508.611 938.046 509.663C938.848 510.715 939.994 511.241 941.483 511.241ZM950.686 504.678C950.686 503.022 951.009 501.533 951.655 500.21C952.311 498.887 953.218 497.866 954.374 497.147C955.54 496.428 956.869 496.069 958.358 496.069C960.66 496.069 962.52 496.866 963.936 498.46C965.363 500.053 966.077 502.173 966.077 504.819V505.022C966.077 506.668 965.759 508.147 965.124 509.46C964.499 510.762 963.598 511.777 962.421 512.507C961.254 513.236 959.91 513.6 958.389 513.6C956.098 513.6 954.238 512.803 952.811 511.21C951.395 509.616 950.686 507.507 950.686 504.882V504.678ZM953.593 505.022C953.593 506.897 954.025 508.402 954.889 509.538C955.764 510.673 956.931 511.241 958.389 511.241C959.858 511.241 961.025 510.668 961.889 509.522C962.754 508.366 963.186 506.751 963.186 504.678C963.186 502.824 962.744 501.324 961.858 500.178C960.983 499.022 959.816 498.444 958.358 498.444C956.931 498.444 955.78 499.012 954.905 500.147C954.03 501.283 953.593 502.908 953.593 505.022ZM968.999 504.694C968.999 502.1 969.613 500.017 970.843 498.444C972.072 496.861 973.681 496.069 975.671 496.069C977.65 496.069 979.218 496.746 980.374 498.1V489.288H983.264V513.288H980.608L980.468 511.475C979.311 512.892 977.702 513.6 975.639 513.6C973.681 513.6 972.082 512.798 970.843 511.194C969.613 509.59 968.999 507.496 968.999 504.913V504.694ZM971.889 505.022C971.889 506.939 972.285 508.439 973.077 509.522C973.869 510.605 974.962 511.147 976.358 511.147C978.191 511.147 979.53 510.324 980.374 508.678V500.913C979.509 499.319 978.181 498.522 976.389 498.522C974.973 498.522 973.869 499.069 973.077 500.163C972.285 501.257 971.889 502.876 971.889 505.022ZM994.78 513.6C992.488 513.6 990.624 512.85 989.186 511.35C987.749 509.84 987.03 507.824 987.03 505.303V504.772C987.03 503.095 987.348 501.6 987.983 500.288C988.629 498.965 989.525 497.934 990.671 497.194C991.827 496.444 993.077 496.069 994.421 496.069C996.619 496.069 998.327 496.793 999.546 498.241C1000.76 499.689 1001.37 501.762 1001.37 504.46V505.663H989.921C989.962 507.329 990.447 508.678 991.374 509.71C992.311 510.73 993.499 511.241 994.936 511.241C995.957 511.241 996.822 511.033 997.53 510.616C998.238 510.199 998.858 509.647 999.389 508.96L1001.16 510.335C999.738 512.512 997.613 513.6 994.78 513.6ZM994.421 498.444C993.254 498.444 992.275 498.871 991.483 499.725C990.691 500.569 990.202 501.757 990.014 503.288H998.483V503.069C998.4 501.6 998.004 500.465 997.296 499.663C996.587 498.85 995.629 498.444 994.421 498.444Z" fill="#E38484"/>
<path opacity="0.1" d="M239.57 227H168.43C164.327 227 161 230.327 161 234.43V245.57C161 249.673 164.327 253 168.43 253H239.57C243.673 253 247 249.673 247 245.57V234.43C247 230.327 243.673 227 239.57 227Z" fill="#6C63FF"/>
<path opacity="0.1" d="M139.57 188H68.43C64.3265 188 61 191.327 61 195.43V206.57C61 210.673 64.3265 214 68.43 214H139.57C143.673 214 147 210.673 147 206.57V195.43C147 191.327 143.673 188 139.57 188Z" fill="#6C63FF"/>
<path opacity="0.1" d="M239.57 175H168.43C164.327 175 161 178.327 161 182.43V193.57C161 197.673 164.327 201 168.43 201H239.57C243.673 201 247 197.673 247 193.57V182.43C247 178.327 243.673 175 239.57 175Z" fill="#6C63FF"/>
<path opacity="0.1" d="M239.57 136H168.43C164.327 136 161 139.327 161 143.43V154.57C161 158.673 164.327 162 168.43 162H239.57C243.673 162 247 158.673 247 154.57V143.43C247 139.327 243.673 136 239.57 136Z" fill="#6C63FF"/>
<path opacity="0.1" d="M239.57 266H168.43C164.327 266 161 269.327 161 273.43V284.57C161 288.673 164.327 292 168.43 292H239.57C243.673 292 247 288.673 247 284.57V273.43C247 269.327 243.673 266 239.57 266Z" fill="#6C63FF"/>
<path opacity="0.1" d="M425.57 295H354.43C350.327 295 347 298.327 347 302.43V313.57C347 317.673 350.327 321 354.43 321H425.57C429.673 321 433 317.673 433 313.57V302.43C433 298.327 429.673 295 425.57 295Z" fill="#6C63FF"/>
<path opacity="0.1" d="M325.57 256H254.43C250.327 256 247 259.327 247 263.43V274.57C247 278.673 250.327 282 254.43 282H325.57C329.673 282 333 278.673 333 274.57V263.43C333 259.327 329.673 256 325.57 256Z" fill="#6C63FF"/>
<path opacity="0.1" d="M425.57 243H354.43C350.327 243 347 246.327 347 250.43V261.57C347 265.673 350.327 269 354.43 269H425.57C429.673 269 433 265.673 433 261.57V250.43C433 246.327 429.673 243 425.57 243Z" fill="#6C63FF"/>
<path opacity="0.1" d="M425.57 204H354.43C350.327 204 347 207.327 347 211.43V222.57C347 226.673 350.327 230 354.43 230H425.57C429.673 230 433 226.673 433 222.57V211.43C433 207.327 429.673 204 425.57 204Z" fill="#6C63FF"/>
<path opacity="0.1" d="M425.57 334H354.43C350.327 334 347 337.327 347 341.43V352.57C347 356.673 350.327 360 354.43 360H425.57C429.673 360 433 356.673 433 352.57V341.43C433 337.327 429.673 334 425.57 334Z" fill="#6C63FF"/>
<path opacity="0.1" d="M325.57 308H254.43C250.327 308 247 311.327 247 315.43V326.57C247 330.673 250.327 334 254.43 334H325.57C329.673 334 333 330.673 333 326.57V315.43C333 311.327 329.673 308 325.57 308Z" fill="#6C63FF"/>
<path opacity="0.1" d="M322.57 365H251.43C247.327 365 244 368.327 244 372.43V383.57C244 387.673 247.327 391 251.43 391H322.57C326.673 391 330 387.673 330 383.57V372.43C330 368.327 326.673 365 322.57 365Z" fill="#6C63FF"/>
</g>
<path opacity="0.1" d="M133.57 330H62.43C58.3265 330 55 333.327 55 337.43V348.57C55 352.673 58.3265 356 62.43 356H133.57C137.673 356 141 352.673 141 348.57V337.43C141 333.327 137.673 330 133.57 330Z" fill="#6C63FF"/>
<path opacity="0.1" d="M133.57 278H62.43C58.3265 278 55 281.327 55 285.43V296.57C55 300.673 58.3265 304 62.43 304H133.57C137.673 304 141 300.673 141 296.57V285.43C141 281.327 137.673 278 133.57 278Z" fill="#6C63FF"/>
<path opacity="0.1" d="M133.57 239H62.43C58.3265 239 55 242.327 55 246.43V257.57C55 261.673 58.3265 265 62.43 265H133.57C137.673 265 141 261.673 141 257.57V246.43C141 242.327 137.673 239 133.57 239Z" fill="#6C63FF"/>
<path opacity="0.1" d="M133.57 369H62.43C58.3265 369 55 372.327 55 376.43V387.57C55 391.673 58.3265 395 62.43 395H133.57C137.673 395 141 391.673 141 387.57V376.43C141 372.327 137.673 369 133.57 369Z" fill="#6C63FF"/>
<path opacity="0.1" d="M233.57 408H162.43C158.327 408 155 411.327 155 415.43V426.57C155 430.673 158.327 434 162.43 434H233.57C237.673 434 241 430.673 241 426.57V415.43C241 411.327 237.673 408 233.57 408Z" fill="#6C63FF"/>
<path opacity="0.1" d="M133.57 369H62.43C58.3265 369 55 372.327 55 376.43V387.57C55 391.673 58.3265 395 62.43 395H133.57C137.673 395 141 391.673 141 387.57V376.43C141 372.327 137.673 369 133.57 369Z" fill="#6C63FF"/>
<path opacity="0.1" d="M233.57 356H162.43C158.327 356 155 359.327 155 363.43V374.57C155 378.673 158.327 382 162.43 382H233.57C237.673 382 241 378.673 241 374.57V363.43C241 359.327 237.673 356 233.57 356Z" fill="#6C63FF"/>
<path opacity="0.1" d="M233.57 317H162.43C158.327 317 155 320.327 155 324.43V335.57C155 339.673 158.327 343 162.43 343H233.57C237.673 343 241 339.673 241 335.57V324.43C241 320.327 237.673 317 233.57 317Z" fill="#6C63FF"/>
<path opacity="0.1" d="M233.57 447H162.43C158.327 447 155 450.327 155 454.43V465.57C155 469.673 158.327 473 162.43 473H233.57C237.673 473 241 469.673 241 465.57V454.43C241 450.327 237.673 447 233.57 447Z" fill="#6C63FF"/>
<path opacity="0.1" d="M734.57 91H663.43C659.327 91 656 94.3265 656 98.43V109.57C656 113.673 659.327 117 663.43 117H734.57C738.673 117 742 113.673 742 109.57V98.43C742 94.3265 738.673 91 734.57 91Z" fill="#6C63FF"/>
<path opacity="0.1" d="M824.57 117H753.43C749.327 117 746 120.327 746 124.43V135.57C746 139.673 749.327 143 753.43 143H824.57C828.673 143 832 139.673 832 135.57V124.43C832 120.327 828.673 117 824.57 117Z" fill="#6C63FF"/>
<path opacity="0.1" d="M914.57 143H843.43C839.327 143 836 146.327 836 150.43V161.57C836 165.673 839.327 169 843.43 169H914.57C918.673 169 922 165.673 922 161.57V150.43C922 146.327 918.673 143 914.57 143Z" fill="#6C63FF"/>
<path opacity="0.1" d="M824.57 78H753.43C749.327 78 746 81.3265 746 85.43V96.57C746 100.673 749.327 104 753.43 104H824.57C828.673 104 832 100.673 832 96.57V85.43C832 81.3265 828.673 78 824.57 78Z" fill="#6C63FF"/>
<path opacity="0.1" d="M914.57 104H843.43C839.327 104 836 107.327 836 111.43V122.57C836 126.673 839.327 130 843.43 130H914.57C918.673 130 922 126.673 922 122.57V111.43C922 107.327 918.673 104 914.57 104Z" fill="#6C63FF"/>
<path opacity="0.1" d="M1014.57 91H943.43C939.327 91 936 94.3265 936 98.43V109.57C936 113.673 939.327 117 943.43 117H1014.57C1018.67 117 1022 113.673 1022 109.57V98.43C1022 94.3265 1018.67 91 1014.57 91Z" fill="#6C63FF"/>
<path opacity="0.1" d="M1104.57 117H1033.43C1029.33 117 1026 120.327 1026 124.43V135.57C1026 139.673 1029.33 143 1033.43 143H1104.57C1108.67 143 1112 139.673 1112 135.57V124.43C1112 120.327 1108.67 117 1104.57 117Z" fill="#6C63FF"/>
<path opacity="0.1" d="M1194.57 143H1123.43C1119.33 143 1116 146.327 1116 150.43V161.57C1116 165.673 1119.33 169 1123.43 169H1194.57C1198.67 169 1202 165.673 1202 161.57V150.43C1202 146.327 1198.67 143 1194.57 143Z" fill="#6C63FF"/>
<path opacity="0.1" d="M1014.57 52H943.43C939.327 52 936 55.3265 936 59.43V70.57C936 74.6735 939.327 78 943.43 78H1014.57C1018.67 78 1022 74.6735 1022 70.57V59.43C1022 55.3265 1018.67 52 1014.57 52Z" fill="#6C63FF"/>
<path opacity="0.1" d="M1104.57 78H1033.43C1029.33 78 1026 81.3265 1026 85.43V96.57C1026 100.673 1029.33 104 1033.43 104H1104.57C1108.67 104 1112 100.673 1112 96.57V85.43C1112 81.3265 1108.67 78 1104.57 78Z" fill="#6C63FF"/>
<path opacity="0.1" d="M1194.57 104H1123.43C1119.33 104 1116 107.327 1116 111.43V122.57C1116 126.673 1119.33 130 1123.43 130H1194.57C1198.67 130 1202 126.673 1202 122.57V111.43C1202 107.327 1198.67 104 1194.57 104Z" fill="#6C63FF"/>
<path opacity="0.1" d="M824.57 26H753.43C749.327 26 746 29.3265 746 33.43V44.57C746 48.6735 749.327 52 753.43 52H824.57C828.673 52 832 48.6735 832 44.57V33.43C832 29.3265 828.673 26 824.57 26Z" fill="#6C63FF"/>
<path opacity="0.1" d="M914.57 52H843.43C839.327 52 836 55.3265 836 59.43V70.57C836 74.6735 839.327 78 843.43 78H914.57C918.673 78 922 74.6735 922 70.57V59.43C922 55.3265 918.673 52 914.57 52Z" fill="#6C63FF"/>
<path opacity="0.1" d="M914.57 13H843.43C839.327 13 836 16.3265 836 20.43V31.57C836 35.6735 839.327 39 843.43 39H914.57C918.673 39 922 35.6735 922 31.57V20.43C922 16.3265 918.673 13 914.57 13Z" fill="#6C63FF"/>
<path opacity="0.1" d="M1014.57 0H943.43C939.327 0 936 3.32652 936 7.42999V18.57C936 22.6735 939.327 26 943.43 26H1014.57C1018.67 26 1022 22.6735 1022 18.57V7.42999C1022 3.32652 1018.67 0 1014.57 0Z" fill="#6C63FF"/>
<path opacity="0.1" d="M1104.57 26H1033.43C1029.33 26 1026 29.3265 1026 33.43V44.57C1026 48.6735 1029.33 52 1033.43 52H1104.57C1108.67 52 1112 48.6735 1112 44.57V33.43C1112 29.3265 1108.67 26 1104.57 26Z" fill="#6C63FF"/>
<path opacity="0.1" d="M1194.57 52H1123.43C1119.33 52 1116 55.3265 1116 59.43V70.57C1116 74.6735 1119.33 78 1123.43 78H1194.57C1198.67 78 1202 74.6735 1202 70.57V59.43C1202 55.3265 1198.67 52 1194.57 52Z" fill="#6C63FF"/>
<path opacity="0.1" d="M1194.57 13H1123.43C1119.33 13 1116 16.3265 1116 20.43V31.57C1116 35.6735 1119.33 39 1123.43 39H1194.57C1198.67 39 1202 35.6735 1202 31.57V20.43C1202 16.3265 1198.67 13 1194.57 13Z" fill="#6C63FF"/>
<path opacity="0.1" d="M429.57 169H358.43C354.327 169 351 172.327 351 176.43V187.57C351 191.673 354.327 195 358.43 195H429.57C433.673 195 437 191.673 437 187.57V176.43C437 172.327 433.673 169 429.57 169Z" fill="#6C63FF"/>
<path opacity="0.1" d="M519.57 156H448.43C444.327 156 441 159.327 441 163.43V174.57C441 178.673 444.327 182 448.43 182H519.57C523.673 182 527 178.673 527 174.57V163.43C527 159.327 523.673 156 519.57 156Z" fill="#6C63FF"/>
<path d="M1342.78 295.493C1342.78 295.493 1328.62 319.04 1295.69 327.855C1262.77 336.67 1295.42 386.139 1295.42 386.139C1295.42 386.139 1283.55 368.151 1300.68 349.1C1317.81 330.05 1345.37 317.025 1342.78 295.493Z" fill="#FF6584"/>
<path opacity="0.1" d="M881 765C1367.56 765 1762 726.944 1762 680C1762 633.056 1367.56 595 881 595C394.437 595 0 633.056 0 680C0 726.944 394.437 765 881 765Z" fill="#6C63FF"/>
<path opacity="0.1" d="M1275.57 79H1204.43C1200.33 79 1197 82.3265 1197 86.43V97.57C1197 101.673 1200.33 105 1204.43 105H1275.57C1279.67 105 1283 101.673 1283 97.57V86.43C1283 82.3265 1279.67 79 1275.57 79Z" fill="#6C63FF"/>
<path opacity="0.1" d="M1365.57 105H1294.43C1290.33 105 1287 108.327 1287 112.43V123.57C1287 127.673 1290.33 131 1294.43 131H1365.57C1369.67 131 1373 127.673 1373 123.57V112.43C1373 108.327 1369.67 105 1365.57 105Z" fill="#6C63FF"/>
<path opacity="0.1" d="M1555.57 79H1484.43C1480.33 79 1477 82.3265 1477 86.43V97.57C1477 101.673 1480.33 105 1484.43 105H1555.57C1559.67 105 1563 101.673 1563 97.57V86.43C1563 82.3265 1559.67 79 1555.57 79Z" fill="#6C63FF"/>
<path opacity="0.1" d="M1645.57 105H1574.43C1570.33 105 1567 108.327 1567 112.43V123.57C1567 127.673 1570.33 131 1574.43 131H1645.57C1649.67 131 1653 127.673 1653 123.57V112.43C1653 108.327 1649.67 105 1645.57 105Z" fill="#6C63FF"/>
<path opacity="0.1" d="M1275.57 27H1204.43C1200.33 27 1197 30.3265 1197 34.43V45.57C1197 49.6735 1200.33 53 1204.43 53H1275.57C1279.67 53 1283 49.6735 1283 45.57V34.43C1283 30.3265 1279.67 27 1275.57 27Z" fill="#6C63FF"/>
<path opacity="0.1" d="M1365.57 53H1294.43C1290.33 53 1287 56.3265 1287 60.43V71.57C1287 75.6735 1290.33 79 1294.43 79H1365.57C1369.67 79 1373 75.6735 1373 71.57V60.43C1373 56.3265 1369.67 53 1365.57 53Z" fill="#6C63FF"/>
<path opacity="0.1" d="M1455.57 79H1384.43C1380.33 79 1377 82.3265 1377 86.43V97.57C1377 101.673 1380.33 105 1384.43 105H1455.57C1459.67 105 1463 101.673 1463 97.57V86.43C1463 82.3265 1459.67 79 1455.57 79Z" fill="#6C63FF"/>
<path opacity="0.1" d="M1455.57 40H1384.43C1380.33 40 1377 43.3265 1377 47.43V58.57C1377 62.6735 1380.33 66 1384.43 66H1455.57C1459.67 66 1463 62.6735 1463 58.57V47.43C1463 43.3265 1459.67 40 1455.57 40Z" fill="#6C63FF"/>
<path opacity="0.1" d="M1555.57 27H1484.43C1480.33 27 1477 30.3265 1477 34.43V45.57C1477 49.6735 1480.33 53 1484.43 53H1555.57C1559.67 53 1563 49.6735 1563 45.57V34.43C1563 30.3265 1559.67 27 1555.57 27Z" fill="#6C63FF"/>
<path opacity="0.1" d="M1645.57 53H1574.43C1570.33 53 1567 56.3265 1567 60.43V71.57C1567 75.6735 1570.33 79 1574.43 79H1645.57C1649.67 79 1653 75.6735 1653 71.57V60.43C1653 56.3265 1649.67 53 1645.57 53Z" fill="#6C63FF"/>
<path opacity="0.1" d="M1735.57 79H1664.43C1660.33 79 1657 82.3265 1657 86.43V97.57C1657 101.673 1660.33 105 1664.43 105H1735.57C1739.67 105 1743 101.673 1743 97.57V86.43C1743 82.3265 1739.67 79 1735.57 79Z" fill="#6C63FF"/>
<path opacity="0.1" d="M1735.57 40H1664.43C1660.33 40 1657 43.3265 1657 47.43V58.57C1657 62.6735 1660.33 66 1664.43 66H1735.57C1739.67 66 1743 62.6735 1743 58.57V47.43C1743 43.3265 1739.67 40 1735.57 40Z" fill="#6C63FF"/>
<path opacity="0.1" d="M1280.57 205H1209.43C1205.33 205 1202 208.327 1202 212.43V223.57C1202 227.673 1205.33 231 1209.43 231H1280.57C1284.67 231 1288 227.673 1288 223.57V212.43C1288 208.327 1284.67 205 1280.57 205Z" fill="#6C63FF"/>
<path opacity="0.1" d="M1370.57 231H1299.43C1295.33 231 1292 234.327 1292 238.43V249.57C1292 253.673 1295.33 257 1299.43 257H1370.57C1374.67 257 1378 253.673 1378 249.57V238.43C1378 234.327 1374.67 231 1370.57 231Z" fill="#6C63FF"/>
<path opacity="0.1" d="M1560.57 205H1489.43C1485.33 205 1482 208.327 1482 212.43V223.57C1482 227.673 1485.33 231 1489.43 231H1560.57C1564.67 231 1568 227.673 1568 223.57V212.43C1568 208.327 1564.67 205 1560.57 205Z" fill="#6C63FF"/>
<path opacity="0.1" d="M1650.57 231H1579.43C1575.33 231 1572 234.327 1572 238.43V249.57C1572 253.673 1575.33 257 1579.43 257H1650.57C1654.67 257 1658 253.673 1658 249.57V238.43C1658 234.327 1654.67 231 1650.57 231Z" fill="#6C63FF"/>
<path opacity="0.1" d="M1280.57 153H1209.43C1205.33 153 1202 156.327 1202 160.43V171.57C1202 175.673 1205.33 179 1209.43 179H1280.57C1284.67 179 1288 175.673 1288 171.57V160.43C1288 156.327 1284.67 153 1280.57 153Z" fill="#6C63FF"/>
<path opacity="0.1" d="M1370.57 179H1299.43C1295.33 179 1292 182.327 1292 186.43V197.57C1292 201.673 1295.33 205 1299.43 205H1370.57C1374.67 205 1378 201.673 1378 197.57V186.43C1378 182.327 1374.67 179 1370.57 179Z" fill="#6C63FF"/>
<path opacity="0.1" d="M1460.57 205H1389.43C1385.33 205 1382 208.327 1382 212.43V223.57C1382 227.673 1385.33 231 1389.43 231H1460.57C1464.67 231 1468 227.673 1468 223.57V212.43C1468 208.327 1464.67 205 1460.57 205Z" fill="#6C63FF"/>
<path opacity="0.1" d="M1460.57 166H1389.43C1385.33 166 1382 169.327 1382 173.43V184.57C1382 188.673 1385.33 192 1389.43 192H1460.57C1464.67 192 1468 188.673 1468 184.57V173.43C1468 169.327 1464.67 166 1460.57 166Z" fill="#6C63FF"/>
<path opacity="0.1" d="M1560.57 153H1489.43C1485.33 153 1482 156.327 1482 160.43V171.57C1482 175.673 1485.33 179 1489.43 179H1560.57C1564.67 179 1568 175.673 1568 171.57V160.43C1568 156.327 1564.67 153 1560.57 153Z" fill="#6C63FF"/>
<path opacity="0.1" d="M1650.57 179H1579.43C1575.33 179 1572 182.327 1572 186.43V197.57C1572 201.673 1575.33 205 1579.43 205H1650.57C1654.67 205 1658 201.673 1658 197.57V186.43C1658 182.327 1654.67 179 1650.57 179Z" fill="#6C63FF"/>
<path opacity="0.1" d="M1740.57 205H1669.43C1665.33 205 1662 208.454 1662 212.716V224.284C1662 228.546 1665.33 232 1669.43 232H1740.57C1744.67 232 1748 228.546 1748 224.284V212.716C1748 208.454 1744.67 205 1740.57 205Z" fill="#6C63FF"/>
<path opacity="0.1" d="M1740.57 266H1669.43C1665.33 266 1662 269.454 1662 273.716V285.284C1662 289.546 1665.33 293 1669.43 293H1740.57C1744.67 293 1748 289.546 1748 285.284V273.716C1748 269.454 1744.67 266 1740.57 266Z" fill="#6C63FF"/>
<defs>
<clipPath id="clip0">
<rect width="1252.31" height="536.294" fill="white" transform="translate(60.7647 135.731)"/>
</clipPath>
</defs>
</svg>
